<?xml version="1.0" encoding="UTF-8" standalone="no"?>
<svg
   xmlns:dc="http://purl.org/dc/elements/1.1/"
   xmlns:cc="http://creativecommons.org/ns#"
   xmlns:rdf="http://www.w3.org/1999/02/22-rdf-syntax-ns#"
   xmlns:svg="http://www.w3.org/2000/svg"
   xmlns="http://www.w3.org/2000/svg"
   id="svg8"
   version="1.1"
   viewBox="0 0 100 100"
   height="100"
   width="100">
  <defs
     id="defs2" />
  <metadata
     id="metadata5">
    <rdf:RDF>
      <cc:Work
         rdf:about="">
        <dc:format>image/svg+xml</dc:format>
        <dc:type
           rdf:resource="http://purl.org/dc/dcmitype/StillImage" />
        <dc:title></dc:title>
      </cc:Work>
    </rdf:RDF>
  </metadata>
  <g
     style="display:inline"
     id="layer7" />
  <g
     style="display:none"
     id="layer1">
    <path
       id="swingX"
       d="M 5,95 V 45 A 40.000001,40.000001 0 0 0 45,5 H 95 V 55 A 40.000001,40.000001 0 0 1 55,95 Z"
       style="opacity:1;vector-effect:none;fill:#80e5ff;fill-opacity:1;stroke:none;stroke-width:2.00811839;stroke-linecap:round;stroke-linejoin:round;stroke-miterlimit:4;stroke-dasharray:none;stroke-dashoffset:0;stroke-opacity:1;paint-order:markers fill stroke" />
    <g
       transform="rotate(180,-37.807816,8.513508)"
       id="g956">
      <path
         style="opacity:1;vector-effect:none;fill:#aa0000;fill-opacity:1;stroke:none;stroke-width:1.00157475;stroke-linecap:round;stroke-linejoin:round;stroke-miterlimit:4;stroke-dasharray:none;stroke-dashoffset:0;stroke-opacity:1;paint-order:markers fill stroke"
         d="M -32.577417,-37.885823 A 19.950514,19.950514 0 0 1 -52.52793,-17.935309 V -37.885823 Z"
         id="path831" />
      <path
         style="opacity:1;vector-effect:none;fill:#aa0000;fill-opacity:1;stroke:none;stroke-width:2.00811839;stroke-linecap:round;stroke-linejoin:round;stroke-miterlimit:4;stroke-dasharray:none;stroke-dashoffset:0;stroke-opacity:1;paint-order:markers fill stroke"
         d="m -20.154839,40.199225 a 40.000001,40.000001 0 0 0 -40,-40.00000119 V 40.199225 Z"
         id="path841" />
    </g>
  </g>
  <g
     style="display:none"
     id="layer4">
    <g
       id="fatal">
      <path
         style="opacity:1;vector-effect:none;fill:#ff0000;fill-opacity:1;stroke:none;stroke-width:2.44552493;stroke-linecap:round;stroke-linejoin:round;stroke-miterlimit:4;stroke-dasharray:none;stroke-dashoffset:0;stroke-opacity:1;paint-order:markers fill stroke"
         d="m 8.578644,13.621757 a 29.289321,29.289321 0 0 0 0,41.421356 L 50,96.464466 91.421359,55.043113 a 29.289321,29.289321 0 0 0 0,-41.421356 29.289321,29.289321 0 0 0 -41.421359,0 29.289321,29.289321 0 0 0 -41.421356,0 z"
         id="path830" />
      <path
         style="opacity:1;vector-effect:none;fill:#aa0000;fill-opacity:1;stroke:none;stroke-width:2.44552493;stroke-linecap:round;stroke-linejoin:round;stroke-miterlimit:4;stroke-dasharray:none;stroke-dashoffset:0;stroke-opacity:1;paint-order:markers fill stroke"
         d="m 70.283203,5.046875 c -0.901936,0.016345 -1.802636,0.07435 -2.699219,0.1738281 0.331267,0.1617589 0.65945,0.3297576 0.984375,0.5039063 C 82.577135,13.812604 87.376943,31.725534 79.289062,45.734375 L 50,96.464844 91.421875,55.042969 c 11.438535,-11.438251 11.438535,-29.983624 0,-41.421875 C 85.823895,8.0238052 78.198603,4.930852 70.283203,5.046875 Z"
         id="path840" />
    </g>
  </g>
  <g
     style="display:inline"
     id="layer2">
    <path
       id="broadsword"
       d="m -72.273777,-43.596441 c 2.231988,6.060783 3.90907,12.585468 4.754622,18.497889 0.589294,4.120554 0.819236,13.323859 1.012697,40.532308 l 0.144067,20.260587 1.452927,-7.33e-4 1.452935,-7.33e-4 -0.137564,0.691162 c -0.206196,1.035944 -1.65282,3.088928 -2.846641,4.039816 -0.611389,0.486951 -1.731732,1.060472 -2.659836,1.361549 -0.911112,0.295563 -1.696658,0.69535 -1.819187,0.925839 -0.324478,0.610354 -0.259916,1.698123 0.119618,2.015385 0.454073,0.37958 0.422682,0.730532 -0.128539,1.436291 l -0.464212,0.594384 0.463564,0.656083 c 0.573282,0.811359 0.575953,1.026742 0.02388,1.926147 -0.406564,0.662359 -0.413548,0.765529 -0.09354,1.381167 0.332467,0.639622 0.327604,0.940366 -0.04723,2.92301 -0.09597,0.507588 0.01616,0.875214 0.44749,1.467111 1.147999,1.575377 1.529001,2.669587 1.425899,4.095074 -0.07787,1.076645 -0.216073,1.44918 -0.743289,2.003518 -0.356179,0.37454 -1.019952,0.782131 -1.475015,0.905807 -0.601175,0.163368 -0.865759,0.37856 -0.967733,0.787023 -0.126038,0.504925 -0.254009,0.562238 -1.256499,0.562773 -1.010345,5.32e-4 -1.116139,-0.04788 -1.115895,-0.510781 2.19e-4,-0.408987 -0.221699,-0.590693 -1.108322,-0.907508 -2.452605,-0.876396 -2.91629,-3.506154 -1.100908,-6.243635 0.906744,-1.367313 1.062197,-2.181519 0.633581,-3.318571 -0.185984,-0.493392 -0.152183,-0.814703 0.15872,-1.5086 0.384976,-0.859227 0.38294,-0.902892 -0.07984,-1.71344 l -0.474885,-0.831742 0.479077,-0.843951 c 0.392169,-0.690858 0.429268,-0.913947 0.204571,-1.229789 -0.535073,-0.752073 -0.568066,-1.033531 -0.197384,-1.683782 0.765179,-1.342287 0.326118,-2.218883 -1.380868,-2.756909 -0.697425,-0.219821 -1.623376,-0.580923 -2.057663,-0.802444 -1.550897,-0.791071 -3.801971,-3.722318 -3.801352,-4.949806 2.18e-4,-0.415053 0.140385,-0.460555 1.420762,-0.461248 l 1.420521,-7.32e-4 0.16354,-23.872676 c 0.174189,-25.42845 0.367923,-32.993657 0.946655,-36.966343 0.528663,-3.628965 1.797447,-9.187121 2.9579,-12.957632 1.043572,-3.390722 2.72047,-8.133604 2.982557,-8.435751 0.08154,-0.09329 0.662075,1.226685 1.290824,2.933992 z m -1.509505,8.015591 c -4.36e-4,0.527686 -0.10349,4.362595 -0.228994,8.522027 -0.263068,8.717969 -0.832806,36.5577979 -1.06375,51.978476 l -0.158049,10.553693 1.736356,-9.25e-4 1.736363,-9.34e-4 -0.136005,-5.361377 c -0.07479,-2.948766 -0.232149,-10.846952 -0.349677,-17.551536 -0.302974,-17.2832501 -0.621989,-31.84774 -0.872679,-39.840772 -0.118721,-3.785254 -0.215575,-7.416882 -0.215223,-8.070283 3.64e-4,-0.65341 -0.100213,-1.187965 -0.223464,-1.187892 -0.123247,6.5e-5 -0.224448,0.431855 -0.224878,0.959532 z"
       style="fill:#800000;stroke-width:0.22491477" />
    <g
       id="mySword">
      <path
         id="broadsword-3"
         d="m 0.27773317,-43.140926 c -0.23889987,0.275395 -1.76647117,4.598547 -2.71767567,7.689179 -1.0577461,3.436799 -2.2140074,8.502496 -2.6958691,11.810293 -0.5275231,3.621066 -0.7054798,10.516532 -0.8642665,33.694422 L -6.1487473,31.812218 6.8449544,31.806333 6.7121453,13.337634 C 6.5358105,-11.462774 6.3275373,-19.849905 5.7903933,-23.605773 5.0196701,-28.994919 3.4896401,-34.944474 1.4551941,-40.468843 0.88208835,-42.025047 0.35264478,-43.225378 0.27773317,-43.140926 Z m -0.0713635,9.17389 c 0.0244577,-0.04441 0.0492024,-0.06938 0.0773057,-0.06937 0.11235592,-5.9e-5 0.20450415,0.488709 0.20417403,1.084295 -3.1721e-4,0.595565 0.0880275,3.905927 0.19624251,7.356157 0.22850966,7.28561 0.51873469,20.5594075 0.79488809,36.312989 0.1071314,6.111195 0.2509737,13.311019 0.3191436,15.998807 l 0.1248862,4.886264 -1.58382678,0.002 H -1.2426587 l 0.1447064,-9.619897 c 0.21050226,-14.055896 0.72954703,-39.431594 0.96932244,-47.377982 0.11440842,-3.791291 0.20772929,-7.287496 0.20813692,-7.768468 2.5405e-4,-0.360792 0.05347958,-0.671557 0.12686689,-0.804798 z"
         style="display:inline;fill:#ececec;stroke:#cccccc;stroke-width:1.43530822;stroke-miterlimit:4;stroke-dasharray:none" />
      <path
         id="path1323"
         d="m 0.20620028,-33.967868 c -0.0733873,0.133239 -0.12660854,0.444007 -0.12686689,0.804796 -4.1481e-4,0.480973 -0.09372563,3.977178 -0.20813692,7.768469 -0.23977828,7.946387 -0.75882305,33.3220834 -0.96932537,47.377953 l -0.1447049,9.619897 H 0.33900791 L 1.9228318,31.601247 1.7979457,26.71498 C 1.7297829,24.027184 1.5859478,16.82736 1.4788106,10.716167 1.2026587,-5.0373875 0.91243077,-18.311185 0.68392252,-25.596792 c -0.10822223,-3.450231 -0.19655684,-6.760593 -0.19624251,-7.35616 3.3156e-4,-0.595585 -0.0918167,-1.084358 -0.20417403,-1.084295 -0.0281033,-4e-6 -0.052848,0.02498 -0.0773057,0.06938 z"
         style="display:inline;fill:#cccccc;stroke:#cccccc;stroke-width:1.43530822;stroke-linecap:butt;stroke-linejoin:miter;stroke-miterlimit:4;stroke-dasharray:none;stroke-opacity:1" />
      <path
         id="path1692"
         d="m 3.9120585,38.583134 c 0.6517347,0.544814 0.6066789,1.048539 -0.1844931,2.06152 l -0.6662873,0.853124 0.6653572,0.941682 c 0.8228364,1.16455 0.8266701,1.473691 0.034275,2.764614 -0.5835447,0.95069 -0.5935688,1.09877 -0.1342587,1.982401 0.4771926,0.918054 0.4702127,1.349715 -0.06779,4.19542 -0.1377466,0.728545 -0.2331099,1.063972 0.3859816,1.913527 l -8.1236665,-0.04263 c 0.6371448,-1.288489 0.6625167,-2.273152 0.1869719,-3.534697 -0.2669444,-0.70817 -0.2184296,-1.16935 0.2278121,-2.165306 0.5525592,-1.233256 0.5496369,-1.295929 -0.114595,-2.459315 l -0.6816064,-1.193806 0.6876232,-1.21133 c 0.5628834,-0.991594 0.6161319,-1.311795 0.2936224,-1.765126 -0.7679947,-1.079456 -0.8153498,-1.483435 -0.2833069,-2.416746 2.5005681,-1.701268 5.0350999,-2.75722 7.7743599,0.07666 z"
         style="fill:#0044aa;stroke:#002255;stroke-width:1.43530822;stroke-miterlimit:4;stroke-dasharray:none" />
      <path
         id="path1669"
         d="m 6.8436483,31.804683 1.3243359,-6.68e-4 1.3243416,-6.67e-4 -0.1253885,0.62999 c -0.1879378,0.944259 -1.5065354,2.815542 -2.5946956,3.68227 -0.5572785,0.443855 -1.578463,0.966616 -2.4244251,1.241044 -3.52608296,0.881376 -6.6981399,0.559101 -9.6205193,-0.612098 -1.4136322,-0.72106 -3.4654885,-3.392859 -3.4649144,-4.511722 1.952e-4,-0.378315 0.1279721,-0.419784 1.2950198,-0.420419 l 1.2947987,-6.67e-4 z m -8.0864821,-0.201436 1.58268137,-8.45e-4 1.58268433,-8.51e-4 z"
         style="display:inline;fill:#003380;fill-opacity:1;stroke:#002255;stroke-width:1.43530822;stroke-miterlimit:4;stroke-dasharray:none;stroke-opacity:1" />
      <path
         style="fill:#003380;fill-opacity:1;stroke:#002255;stroke-width:1.43530822;stroke-miterlimit:4;stroke-dasharray:none;stroke-opacity:1"
         d="m 3.584069,53.020394 c 0.7908075,-0.01516 0.510598,0.322541 1.1296895,1.172096 0.8147412,1.171856 1.6819774,3.126842 1.5339943,5.172855 -0.1117675,1.545317 -0.3101314,2.08002 -1.0668488,2.875666 -0.5112267,0.53758 -1.4639455,1.122599 -2.1171012,1.300112 -0.8628714,0.234483 -1.242631,0.54335 -1.3889951,1.12962 -0.1809034,0.724723 -0.3645812,0.806985 -1.80346339,0.807753 -1.45015651,7.64e-4 -1.60200341,-0.06872 -1.60165321,-0.733128 3.143e-4,-0.587022 -0.3182064,-0.847827 -1.5907837,-1.302554 -3.5202441,-1.257898 -4.185775,-5.032411 -1.5801423,-8.96154 0.6624221,-0.998892 0.1393111,-1.331645 0.9996018,-1.405355 z"
         id="path1694" />
    </g>
  </g>
  <g
     style="display:none"
     id="layer6">
    <g
       id="orcBody">
      <path
         style="fill:#502d16;stroke:#502d16;stroke-width:1;stroke-linecap:butt;stroke-linejoin:miter;stroke-miterlimit:4;stroke-dasharray:none;stroke-opacity:1"
         d="m 40.281227,50.167091 0.839202,-16.50431 20.420586,-2.79734 -2.237872,20.700319 z"
         id="path991" />
      <path
         style="fill:#918a6f;stroke:#484537;stroke-width:1;stroke-linecap:butt;stroke-linejoin:miter;stroke-miterlimit:4;stroke-dasharray:none;stroke-opacity:1"
         d="m 65.42394,53.046777 -4.153839,-1.978019 -3.758235,0.98901 -0.395604,18.791176 1.780217,4.35164 3.164828,-5.934056 z"
         id="path1033" />
      <path
         id="path1031"
         d="m 61.270101,51.068758 -4.153839,-1.978018 -3.758235,0.989009 -0.395604,18.791177 1.780217,4.35164 3.164829,-5.934056 z"
         style="fill:#918a6f;stroke:#484537;stroke-width:1;stroke-linecap:butt;stroke-linejoin:miter;stroke-miterlimit:4;stroke-dasharray:none;stroke-opacity:1" />
      <path
         style="fill:#784421;stroke:#502d16;stroke-width:1;stroke-linecap:butt;stroke-linejoin:miter;stroke-miterlimit:4;stroke-dasharray:none;stroke-opacity:1"
         d="m 32.728407,23.592355 5.035214,-8.112288 30.491013,0.559469 6.154149,9.231223 -8.671757,13.147501 -11.469096,1.118937 -4.196011,-3.077076 -4.19601,2.797342 -12.028565,-3.636543 z"
         id="path989" />
      <path
         style="fill:#918a6f;stroke:#484537;stroke-width:1;stroke-linecap:butt;stroke-linejoin:miter;stroke-miterlimit:4;stroke-dasharray:none;stroke-opacity:1"
         d="m 43.072331,48.892938 -4.153839,-1.978018 -3.758235,0.989009 -0.395604,18.791176 1.780217,4.35164 3.164829,-5.934056 z"
         id="path1025" />
      <path
         id="path1027"
         d="m 48.808584,48.299532 -4.153839,-1.978018 -3.758235,0.989009 -0.395604,18.791177 1.780217,4.35164 3.164829,-5.934056 z"
         style="fill:#918a6f;stroke:#484537;stroke-width:1;stroke-linecap:butt;stroke-linejoin:miter;stroke-miterlimit:4;stroke-dasharray:none;stroke-opacity:1" />
      <path
         style="fill:#918a6f;stroke:#484537;stroke-width:1;stroke-linecap:butt;stroke-linejoin:miter;stroke-miterlimit:4;stroke-dasharray:none;stroke-opacity:1"
         d="m 55.336045,49.288542 -4.153839,-1.978019 -3.758235,0.989009 -0.395604,18.791177 1.780217,4.35164 3.164829,-5.934056 z"
         id="path1029" />
    </g>
    <g
       id="orcHead">
      <path
         style="fill:#217821;stroke:#165016;stroke-width:1;stroke-linecap:round;stroke-linejoin:round;stroke-miterlimit:4;stroke-dasharray:none;stroke-opacity:1"
         d="m 57.740695,14.645103 8.703281,-6.7252622 -2.17582,8.5054792 -2.967029,3.263731 -4.648343,1.08791 z"
         id="path985" />
      <path
         style="fill:#217821;stroke:#165016;stroke-width:1;stroke-linecap:round;stroke-linejoin:round;stroke-miterlimit:4;stroke-dasharray:none;stroke-opacity:1"
         d="m 48.641809,14.941807 -7.615371,-8.9010843 -0.692307,7.9120743 2.472524,2.868127 4.450541,0.989009 z"
         id="path987" />
      <path
         style="fill:#217821;stroke:#165016;stroke-width:1;stroke-linecap:round;stroke-linejoin:round;stroke-miterlimit:4;stroke-dasharray:none;stroke-opacity:1"
         d="m 44.662804,25.017702 1.681315,-10.879104 6.42856,-1.978018 6.527462,2.967029 -0.395604,12.065914 z"
         id="path979" />
      <path
         style="fill:#ffeeaa;stroke:#d4aa00;stroke-width:1px;stroke-linecap:butt;stroke-linejoin:round;stroke-opacity:1"
         d="m 57.946428,26.339286 2.904959,-7.843682 c 0.426511,1.852275 0.977339,3.530509 -0.226383,7.665111 z"
         id="path1051" />
      <path
         id="path1053"
         d="m 45.711614,24.664606 -2.904959,-7.843682 c -0.426511,1.852275 -0.977339,3.530509 0.226383,7.665111 z"
         style="fill:#ffeeaa;stroke:#d4aa00;stroke-width:1px;stroke-linecap:butt;stroke-linejoin:round;stroke-opacity:1" />
      <path
         style="fill:#008000;stroke:#165016;stroke-width:1px;stroke-linecap:butt;stroke-linejoin:round;stroke-opacity:1"
         d="m 52.224631,18.682721 2.335978,3.977475 -1.452094,2.462247 -2.714785,-0.126269 -1.010153,-2.272843 z"
         id="path1055" />
      <path
         style="fill:#217821;stroke:#165016;stroke-width:1;stroke-linecap:round;stroke-linejoin:round;stroke-miterlimit:4;stroke-dasharray:none;stroke-opacity:1"
         d="m 41.224239,23.546187 4.945047,9.098885 11.472507,0.791207 4.549443,-8.505479 z"
         id="path977" />
      <path
         style="fill:#ff0000;stroke:#800000;stroke-width:1;stroke-linecap:round;stroke-linejoin:round;stroke-miterlimit:4;stroke-dasharray:none;stroke-opacity:1"
         d="m 44.092368,15.33741 7.51647,1.780216 -1.978019,2.571424 -3.164829,-1.186811 z"
         id="path981" />
      <path
         id="path983"
         d="m 59.365102,15.978111 -6.287661,1.489183 1.654648,2.151042 2.647437,-0.992789 z"
         style="fill:#ff0000;stroke:#800000;stroke-width:1;stroke-linecap:round;stroke-linejoin:round;stroke-miterlimit:4;stroke-dasharray:none;stroke-opacity:1" />
    </g>
    <g
       id="orcBootR">
      <path
         style="fill:#552200;stroke:#2b1100;stroke-width:1;stroke-linecap:butt;stroke-linejoin:miter;stroke-miterlimit:4;stroke-dasharray:none;stroke-opacity:1"
         d="m 26.061371,90.431327 0.791208,-9.692291 v 0 l 9.296687,-0.989009 v 0 l 0.791207,7.912074 0.791207,3.560433 -1.780216,3.758236 -8.50548,-0.98901 z"
         id="path1041" />
      <path
         style="fill:#552200;stroke:#2b1100;stroke-width:1;stroke-linecap:butt;stroke-linejoin:miter;stroke-miterlimit:4;stroke-dasharray:none;stroke-opacity:1"
         d="m 23.687749,95.178572 -2.967028,-1.186812 0.395604,-5.934055 4.351641,-1.186811 8.901083,1.384613 1.780217,3.362631 -2.373623,3.560434 z"
         id="path1037" />
      <path
         id="path1039"
         d="m 35.401513,74.74626 3.115651,0.710284 0.533322,5.923265 -4.113731,1.850005 -9.008113,0.01843 -2.282154,-3.044377 1.153,-5.388139 z"
         style="fill:#ff6600;stroke:#aa4400;stroke-width:1;stroke-linecap:butt;stroke-linejoin:miter;stroke-miterlimit:4;stroke-dasharray:none;stroke-opacity:1" />
    </g>
    <g
       id="orcBootL">
      <path
         id="path1043"
         d="m 75.459354,90.175367 -0.791207,-9.692291 v 0 L 65.37146,79.494067 v 0 l -0.791207,7.912074 -0.791208,3.560434 1.780217,3.758235 8.505479,-0.989009 z"
         style="fill:#552200;stroke:#2b1100;stroke-width:1;stroke-linecap:butt;stroke-linejoin:miter;stroke-miterlimit:4;stroke-dasharray:none;stroke-opacity:1" />
      <path
         id="path1045"
         d="m 77.832976,94.922612 2.967029,-1.186811 -0.395604,-5.934056 -4.351642,-1.18681 -8.901083,1.384613 -1.780216,3.362631 2.373623,3.560433 z"
         style="fill:#552200;stroke:#2b1100;stroke-width:1;stroke-linecap:butt;stroke-linejoin:miter;stroke-miterlimit:4;stroke-dasharray:none;stroke-opacity:1" />
      <path
         style="fill:#ff6600;stroke:#aa4400;stroke-width:1;stroke-linecap:butt;stroke-linejoin:miter;stroke-miterlimit:4;stroke-dasharray:none;stroke-opacity:1"
         d="m 66.119213,74.490301 -3.115651,0.710283 -0.533322,5.923266 4.113731,1.850004 9.008112,0.01843 2.282155,-3.044377 -1.153001,-5.388138 z"
         id="path1047" />
    </g>
    <g
       id="orcShield">
      <ellipse
         style="opacity:1;vector-effect:none;fill:#ac9d93;fill-opacity:1;stroke:#6c5d53;stroke-width:1;stroke-linecap:round;stroke-linejoin:round;stroke-miterlimit:4;stroke-dasharray:none;stroke-dashoffset:0;stroke-opacity:1;paint-order:markers fill stroke"
         id="path1021"
         cx="79.617165"
         cy="46.243748"
         rx="12.457746"
         ry="17.129702" />
      <path
         style="fill:#ac9d93;stroke:#6c5d53;stroke-width:1;stroke-linecap:butt;stroke-linejoin:miter;stroke-miterlimit:4;stroke-dasharray:none;stroke-opacity:1"
         d="m 80.355787,40.0703 c -2.188837,4.794314 -1.175874,7.987727 0,11.099686 l 5.308545,-3.86076 c 2.483773,-1.769516 3.17735,-3.53903 -0.32173,-5.308545 z"
         id="path1049" />
    </g>
    <g
       id="orcSword">
      <circle
         style="opacity:1;vector-effect:none;fill:#666666;fill-opacity:1;stroke:#000000;stroke-width:1;stroke-linecap:round;stroke-linejoin:round;stroke-miterlimit:4;stroke-dasharray:none;stroke-dashoffset:0;stroke-opacity:1;paint-order:markers fill stroke"
         id="path1309"
         cx="-23.07246"
         cy="23.591419"
         r="3.0304575"
         transform="rotate(-45)" />
      <path
         id="path1009"
         d="m -6.814161,27.917846 3.989529,3.441545 2.16761897,-0.167845 1.59755501,0.119073 L 2.552082,27.49367 2.432979,24.819095 1.342972,22.832996 -0.88450203,21.908807 -2.227774,18.732745 l -3.91314,2.562601 -1.2687345,2.678469 z"
         style="display:inline;fill:#217821;stroke:#165016;stroke-width:1;stroke-linecap:butt;stroke-linejoin:miter;stroke-miterlimit:4;stroke-dasharray:none;stroke-opacity:1" />
      <path
         id="path1011"
         d="m -4.616356,20.559688 0.707336,-1.437367 2.746941,-1.834669 3.223623,2.003387 0.12386,1.390267 -3.447324,-0.582155 -1.144514,1.974859"
         style="display:inline;fill:#217821;stroke:#165016;stroke-width:1;stroke-linecap:butt;stroke-linejoin:miter;stroke-miterlimit:4;stroke-dasharray:none;stroke-opacity:1" />
      <path
         style="display:inline;fill:#217821;stroke:#165016;stroke-width:1;stroke-linecap:butt;stroke-linejoin:miter;stroke-miterlimit:4;stroke-dasharray:none;stroke-opacity:1"
         d="M -0.65701503,31.191548 0.94053898,31.310621 3.914629,29.873095 3.822209,26.078789 2.686684,25.267147 1.440663,28.533704 0.67022298,28.481384"
         id="path1013" />
      <path
         id="path1015"
         d="M 0.07411598,29.267053 1.671671,29.386124 4.645763,27.948599 4.553343,24.154294 3.417816,23.342651 2.171796,26.60921 -0.01504902,26.57969"
         style="display:inline;fill:#217821;stroke:#165016;stroke-width:1;stroke-linecap:butt;stroke-linejoin:miter;stroke-miterlimit:4;stroke-dasharray:none;stroke-opacity:1" />
      <path
         style="display:inline;fill:#217821;stroke:#165016;stroke-width:1;stroke-linecap:butt;stroke-linejoin:miter;stroke-miterlimit:4;stroke-dasharray:none;stroke-opacity:1"
         d="M 0.57423298,26.490149 2.171788,26.60922 5.14588,25.171694 5.05346,21.377384 3.917926,20.565752 2.671907,23.832313 0.38941298,23.817553"
         id="path1017" />
      <path
         id="path1019"
         d="M -0.69968303,24.581399 0.89787098,24.700471 3.871961,23.262947 3.779541,19.468639 2.644007,18.657006 1.397986,21.923565 -0.88450603,21.908805"
         style="display:inline;fill:#217821;stroke:#165016;stroke-width:1;stroke-linecap:butt;stroke-linejoin:miter;stroke-miterlimit:4;stroke-dasharray:none;stroke-opacity:1" />
      <path
         id="path1311"
         d="m 5.002949,16.776385 0.922684,-4.65e-4 0.922688,-4.65e-4 -0.08736,0.438923 c -0.130939,0.657879 -1.049625,1.961629 -1.807762,2.565491 -0.388264,0.30924 -1.099738,0.673455 -1.689132,0.864653 -2.45667302,0.614068 -4.666691,0.389534 -6.702755,-0.426457 -0.984898,-0.502373 -2.414456,-2.363854 -2.414056,-3.143382 1.36e-4,-0.263578 0.08916,-0.29247 0.902259,-0.292912 l 0.902105,-4.65e-4 z M -0.63102003,16.636042 0.47165698,16.635453 1.574336,16.63486 Z"
         style="display:inline;fill:#666666;stroke:#000000;stroke-width:1;stroke-miterlimit:4;stroke-dasharray:none" />
      <path
         id="path1647"
         d="m -15.682648,-34.198731 c 0.02058,0.139696 0.598831,1.400263 1.284838,2.801261 2.247674,4.590325 2.492766,7.871541 0.677291,9.067297 l -0.703175,0.463141 2.075182,1.963442 c 6.7842043,6.418906 6.4440056,10.8622098 8.1982834,19.16670961 0.8361803,3.95836469 0.9876831,5.88516849 0.923432,11.74410739 -0.021694,1.97806 0.016171,3.982054 0.084278,4.45332 0.099294,0.687206 0.054204,1.038258 -0.5176737,1.343199 l 7.7699802,-0.02312 0.6488388,-1.841045 C 5.1634755,13.790842 6.4278853,9.3971082 6.3713334,9.0145977 6.3648208,8.9711767 5.95926,8.9945576 5.4698789,9.0665704 4.6989517,9.1799635 4.5534973,9.0984695 4.3809429,8.4560834 4.2402552,7.9323128 4.3821925,7.4097358 4.8643698,6.6759264 6.0304877,4.9013562 6.0771966,2.2942238 5.0653935,-4.5450672 3.9551074,-12.05118 3.1150063,-14.529857 -0.10611217,-19.806197 -3.4119391,-25.221297 -9.7090157,-31.394704 -14.318903,-33.739864 c -0.770711,-0.392076 -1.384391,-0.598571 -1.363739,-0.458874 z"
         style="display:inline;fill:#483e37;stroke-width:0.27505341" />
      <path
         id="path1664"
         d="m -15.585938,-34.240234 c -0.06667,-0.0058 -0.102819,0.0061 -0.09766,0.04102 0.02058,0.139696 0.599149,1.399784 1.285156,2.800781 0.569799,1.163674 1.008852,2.241845 1.320313,3.22461 C 6.2401693,-12.799068 1.3811899,1.9038932 2.9335938,16.785156 L 4.109375,16.78125 4.7578125,14.939453 C 5.1626613,13.790714 6.4276456,9.3961824 6.3710938,9.0136719 6.3645812,8.9702509 5.9600842,8.9943935 5.4707031,9.0664062 4.6997759,9.1797993 4.5534138,9.0994173 4.3808594,8.4570312 4.2401717,7.9332606 4.3830571,7.4095907 4.8652344,6.6757812 6.0313523,4.9012111 6.0762562,2.2943691 5.0644531,-4.5449219 3.954167,-12.051035 3.1156497,-14.530301 -0.10546875,-19.806641 -3.4112957,-25.221741 -9.7084721,-31.395074 -14.318359,-33.740234 c -0.578034,-0.294057 -1.067566,-0.48248 -1.267579,-0.5 z"
         style="display:inline;fill:#6c5353;stroke-width:0.27505341" />
    </g>
  </g>
  <g
     id="layer5" />
  <g
     style="display:none"
     id="layer3">
    <text
       id="text827"
       y="62.282455"
       x="13.185451"
       style="font-style:normal;font-weight:normal;font-size:40px;line-height:1.25;font-family:sans-serif;letter-spacing:0px;word-spacing:0px;fill:#000000;fill-opacity:1;stroke:none"
       xml:space="preserve"><tspan
         y="62.282455"
         x="13.185451"
         id="tspan825">999</tspan></text>
  </g>
</svg>
