<?xml version="1.0" encoding="UTF-8" standalone="no"?>
<!-- Created with Inkscape (http://www.inkscape.org/) -->

<svg
   xmlns:dc="http://purl.org/dc/elements/1.1/"
   xmlns:cc="http://creativecommons.org/ns#"
   xmlns:rdf="http://www.w3.org/1999/02/22-rdf-syntax-ns#"
   xmlns:svg="http://www.w3.org/2000/svg"
   xmlns="http://www.w3.org/2000/svg"
   xmlns:sodipodi="http://sodipodi.sourceforge.net/DTD/sodipodi-0.dtd"
   xmlns:inkscape="http://www.inkscape.org/namespaces/inkscape"
   width="100"
   height="100"
   viewBox="0 0 100 100"
   version="1.1"
   id="svg8"
   inkscape:version="0.92.3 (2405546, 2018-03-11)"
   sodipodi:docname="swordfight.svg">
  <defs
     id="defs2" />
  <sodipodi:namedview
     id="base"
     pagecolor="#ffffff"
     bordercolor="#666666"
     borderopacity="1.0"
     inkscape:pageopacity="0.0"
     inkscape:pageshadow="2"
     inkscape:zoom="2.8"
     inkscape:cx="252.40319"
     inkscape:cy="49.164569"
     inkscape:document-units="px"
     inkscape:current-layer="orcSword"
     showgrid="false"
     units="px"
     inkscape:window-width="1853"
     inkscape:window-height="1025"
     inkscape:window-x="67"
     inkscape:window-y="27"
     inkscape:window-maximized="1"
     objecttolerance="5" />
  <metadata
     id="metadata5">
    <rdf:RDF>
      <cc:Work
         rdf:about="">
        <dc:format>image/svg+xml</dc:format>
        <dc:type
           rdf:resource="http://purl.org/dc/dcmitype/StillImage" />
        <dc:title></dc:title>
      </cc:Work>
    </rdf:RDF>
  </metadata>
  <g
     inkscape:groupmode="layer"
     id="layer7"
     inkscape:label="clip"
     style="display:inline" />
  <g
     inkscape:label="boxed"
     inkscape:groupmode="layer"
     id="layer1"
     style="display:none">
    <path
       style="opacity:1;vector-effect:none;fill:#80e5ff;fill-opacity:1;stroke:none;stroke-width:2.00811839;stroke-linecap:round;stroke-linejoin:round;stroke-miterlimit:4;stroke-dasharray:none;stroke-dashoffset:0;stroke-opacity:1;paint-order:markers fill stroke"
       d="M 5,95 V 45 A 40.000001,40.000001 0 0 0 45,5 H 95 V 55 A 40.000001,40.000001 0 0 1 55,95 Z"
       id="swingX"
       inkscape:label="#path836"
       inkscape:connector-curvature="0" />
    <g
       id="g956"
       transform="rotate(180,-37.807816,8.513508)">
      <path
         inkscape:connector-curvature="0"
         id="path831"
         d="M -32.577417,-37.885823 A 19.950514,19.950514 0 0 1 -52.52793,-17.935309 V -37.885823 Z"
         style="opacity:1;vector-effect:none;fill:#aa0000;fill-opacity:1;stroke:none;stroke-width:1.00157475;stroke-linecap:round;stroke-linejoin:round;stroke-miterlimit:4;stroke-dasharray:none;stroke-dashoffset:0;stroke-opacity:1;paint-order:markers fill stroke" />
      <path
         inkscape:connector-curvature="0"
         id="path841"
         d="m -20.154839,40.199225 a 40.000001,40.000001 0 0 0 -40,-40.00000119 V 40.199225 Z"
         style="opacity:1;vector-effect:none;fill:#aa0000;fill-opacity:1;stroke:none;stroke-width:2.00811839;stroke-linecap:round;stroke-linejoin:round;stroke-miterlimit:4;stroke-dasharray:none;stroke-dashoffset:0;stroke-opacity:1;paint-order:markers fill stroke" />
    </g>
  </g>
  <g
     inkscape:groupmode="layer"
     id="layer4"
     inkscape:label="fatal"
     style="display:none">
    <g
       id="fatal"
       inkscape:label="#g845">
      <path
         inkscape:connector-curvature="0"
         id="path830"
         d="m 8.578644,13.621757 a 29.289321,29.289321 0 0 0 0,41.421356 L 50,96.464466 91.421359,55.043113 a 29.289321,29.289321 0 0 0 0,-41.421356 29.289321,29.289321 0 0 0 -41.421359,0 29.289321,29.289321 0 0 0 -41.421356,0 z"
         style="opacity:1;vector-effect:none;fill:#ff0000;fill-opacity:1;stroke:none;stroke-width:2.44552493;stroke-linecap:round;stroke-linejoin:round;stroke-miterlimit:4;stroke-dasharray:none;stroke-dashoffset:0;stroke-opacity:1;paint-order:markers fill stroke" />
      <path
         sodipodi:nodetypes="cccccccc"
         inkscape:connector-curvature="0"
         id="path840"
         d="m 70.283203,5.046875 c -0.901936,0.016345 -1.802636,0.07435 -2.699219,0.1738281 0.331267,0.1617589 0.65945,0.3297576 0.984375,0.5039063 C 82.577135,13.812604 87.376943,31.725534 79.289062,45.734375 L 50,96.464844 91.421875,55.042969 c 11.438535,-11.438251 11.438535,-29.983624 0,-41.421875 C 85.823895,8.0238052 78.198603,4.930852 70.283203,5.046875 Z"
         style="opacity:1;vector-effect:none;fill:#aa0000;fill-opacity:1;stroke:none;stroke-width:2.44552493;stroke-linecap:round;stroke-linejoin:round;stroke-miterlimit:4;stroke-dasharray:none;stroke-dashoffset:0;stroke-opacity:1;paint-order:markers fill stroke" />
    </g>
  </g>
  <g
     inkscape:groupmode="layer"
     id="layer2"
     inkscape:label="swords"
     style="display:inline">
    <path
       style="fill:#800000;stroke-width:0.22491477"
       d="m -72.273777,-43.596441 c 2.231988,6.060783 3.90907,12.585468 4.754622,18.497889 0.589294,4.120554 0.819236,13.323859 1.012697,40.532308 l 0.144067,20.260587 1.452927,-7.33e-4 1.452935,-7.33e-4 -0.137564,0.691162 c -0.206196,1.035944 -1.65282,3.088928 -2.846641,4.039816 -0.611389,0.486951 -1.731732,1.060472 -2.659836,1.361549 -0.911112,0.295563 -1.696658,0.69535 -1.819187,0.925839 -0.324478,0.610354 -0.259916,1.698123 0.119618,2.015385 0.454073,0.37958 0.422682,0.730532 -0.128539,1.436291 l -0.464212,0.594384 0.463564,0.656083 c 0.573282,0.811359 0.575953,1.026742 0.02388,1.926147 -0.406564,0.662359 -0.413548,0.765529 -0.09354,1.381167 0.332467,0.639622 0.327604,0.940366 -0.04723,2.92301 -0.09597,0.507588 0.01616,0.875214 0.44749,1.467111 1.147999,1.575377 1.529001,2.669587 1.425899,4.095074 -0.07787,1.076645 -0.216073,1.44918 -0.743289,2.003518 -0.356179,0.37454 -1.019952,0.782131 -1.475015,0.905807 -0.601175,0.163368 -0.865759,0.37856 -0.967733,0.787023 -0.126038,0.504925 -0.254009,0.562238 -1.256499,0.562773 -1.010345,5.32e-4 -1.116139,-0.04788 -1.115895,-0.510781 2.19e-4,-0.408987 -0.221699,-0.590693 -1.108322,-0.907508 -2.452605,-0.876396 -2.91629,-3.506154 -1.100908,-6.243635 0.906744,-1.367313 1.062197,-2.181519 0.633581,-3.318571 -0.185984,-0.493392 -0.152183,-0.814703 0.15872,-1.5086 0.384976,-0.859227 0.38294,-0.902892 -0.07984,-1.71344 l -0.474885,-0.831742 0.479077,-0.843951 c 0.392169,-0.690858 0.429268,-0.913947 0.204571,-1.229789 -0.535073,-0.752073 -0.568066,-1.033531 -0.197384,-1.683782 0.765179,-1.342287 0.326118,-2.218883 -1.380868,-2.756909 -0.697425,-0.219821 -1.623376,-0.580923 -2.057663,-0.802444 -1.550897,-0.791071 -3.801971,-3.722318 -3.801352,-4.949806 2.18e-4,-0.415053 0.140385,-0.460555 1.420762,-0.461248 l 1.420521,-7.32e-4 0.16354,-23.872676 c 0.174189,-25.42845 0.367923,-32.993657 0.946655,-36.966343 0.528663,-3.628965 1.797447,-9.187121 2.9579,-12.957632 1.043572,-3.390722 2.72047,-8.133604 2.982557,-8.435751 0.08154,-0.09329 0.662075,1.226685 1.290824,2.933992 z m -1.509505,8.015591 c -4.36e-4,0.527686 -0.10349,4.362595 -0.228994,8.522027 -0.263068,8.717969 -0.832806,36.5577979 -1.06375,51.978476 l -0.158049,10.553693 1.736356,-9.25e-4 1.736363,-9.34e-4 -0.136005,-5.361377 c -0.07479,-2.948766 -0.232149,-10.846952 -0.349677,-17.551536 -0.302974,-17.2832501 -0.621989,-31.84774 -0.872679,-39.840772 -0.118721,-3.785254 -0.215575,-7.416882 -0.215223,-8.070283 3.64e-4,-0.65341 -0.100213,-1.187965 -0.223464,-1.187892 -0.123247,6.5e-5 -0.224448,0.431855 -0.224878,0.959532 z"
       id="broadsword"
       inkscape:connector-curvature="0"
       inkscape:label="#path847-3" />
  </g>
  <g
     inkscape:groupmode="layer"
     id="layer6"
     inkscape:label="orc">
    <g
       id="orcBody"
       inkscape:label="#g1462">
      <path
         inkscape:connector-curvature="0"
         id="path991"
         d="m 40.281227,50.167091 0.839202,-16.50431 20.420586,-2.79734 -2.237872,20.700319 z"
         style="fill:#502d16;stroke:#502d16;stroke-width:1;stroke-linecap:butt;stroke-linejoin:miter;stroke-miterlimit:4;stroke-dasharray:none;stroke-opacity:1" />
      <path
         inkscape:connector-curvature="0"
         id="path1033"
         d="m 65.42394,53.046777 -4.153839,-1.978019 -3.758235,0.98901 -0.395604,18.791176 1.780217,4.35164 3.164828,-5.934056 z"
         style="fill:#918a6f;stroke:#484537;stroke-width:1;stroke-linecap:butt;stroke-linejoin:miter;stroke-miterlimit:4;stroke-dasharray:none;stroke-opacity:1" />
      <path
         style="fill:#918a6f;stroke:#484537;stroke-width:1;stroke-linecap:butt;stroke-linejoin:miter;stroke-miterlimit:4;stroke-dasharray:none;stroke-opacity:1"
         d="m 61.270101,51.068758 -4.153839,-1.978018 -3.758235,0.989009 -0.395604,18.791177 1.780217,4.35164 3.164829,-5.934056 z"
         id="path1031"
         inkscape:connector-curvature="0" />
      <path
         inkscape:connector-curvature="0"
         id="path989"
         d="m 32.728407,23.592355 5.035214,-8.112288 30.491013,0.559469 6.154149,9.231223 -8.671757,13.147501 -11.469096,1.118937 -4.196011,-3.077076 -4.19601,2.797342 -12.028565,-3.636543 z"
         style="fill:#784421;stroke:#502d16;stroke-width:1;stroke-linecap:butt;stroke-linejoin:miter;stroke-miterlimit:4;stroke-dasharray:none;stroke-opacity:1" />
      <path
         inkscape:connector-curvature="0"
         id="path1025"
         d="m 43.072331,48.892938 -4.153839,-1.978018 -3.758235,0.989009 -0.395604,18.791176 1.780217,4.35164 3.164829,-5.934056 z"
         style="fill:#918a6f;stroke:#484537;stroke-width:1;stroke-linecap:butt;stroke-linejoin:miter;stroke-miterlimit:4;stroke-dasharray:none;stroke-opacity:1" />
      <path
         style="fill:#918a6f;stroke:#484537;stroke-width:1;stroke-linecap:butt;stroke-linejoin:miter;stroke-miterlimit:4;stroke-dasharray:none;stroke-opacity:1"
         d="m 48.808584,48.299532 -4.153839,-1.978018 -3.758235,0.989009 -0.395604,18.791177 1.780217,4.35164 3.164829,-5.934056 z"
         id="path1027"
         inkscape:connector-curvature="0" />
      <path
         inkscape:connector-curvature="0"
         id="path1029"
         d="m 55.336045,49.288542 -4.153839,-1.978019 -3.758235,0.989009 -0.395604,18.791177 1.780217,4.35164 3.164829,-5.934056 z"
         style="fill:#918a6f;stroke:#484537;stroke-width:1;stroke-linecap:butt;stroke-linejoin:miter;stroke-miterlimit:4;stroke-dasharray:none;stroke-opacity:1" />
    </g>
    <g
       id="orcHead"
       inkscape:label="#g1449">
      <path
         inkscape:connector-curvature="0"
         id="path985"
         d="m 57.740695,14.645103 8.703281,-6.7252622 -2.17582,8.5054792 -2.967029,3.263731 -4.648343,1.08791 z"
         style="fill:#217821;stroke:#165016;stroke-width:1;stroke-linecap:round;stroke-linejoin:round;stroke-miterlimit:4;stroke-dasharray:none;stroke-opacity:1" />
      <path
         inkscape:connector-curvature="0"
         id="path987"
         d="m 48.641809,14.941807 -7.615371,-8.9010843 -0.692307,7.9120743 2.472524,2.868127 4.450541,0.989009 z"
         style="fill:#217821;stroke:#165016;stroke-width:1;stroke-linecap:round;stroke-linejoin:round;stroke-miterlimit:4;stroke-dasharray:none;stroke-opacity:1" />
      <path
         sodipodi:nodetypes="cccccc"
         inkscape:connector-curvature="0"
         id="path979"
         d="m 44.662804,25.017702 1.681315,-10.879104 6.42856,-1.978018 6.527462,2.967029 -0.395604,12.065914 z"
         style="fill:#217821;stroke:#165016;stroke-width:1;stroke-linecap:round;stroke-linejoin:round;stroke-miterlimit:4;stroke-dasharray:none;stroke-opacity:1" />
      <path
         sodipodi:nodetypes="cccc"
         inkscape:connector-curvature="0"
         id="path1051"
         d="m 57.946428,26.339286 2.904959,-7.843682 c 0.426511,1.852275 0.977339,3.530509 -0.226383,7.665111 z"
         style="fill:#ffeeaa;stroke:#d4aa00;stroke-width:1px;stroke-linecap:butt;stroke-linejoin:round;stroke-opacity:1" />
      <path
         style="fill:#ffeeaa;stroke:#d4aa00;stroke-width:1px;stroke-linecap:butt;stroke-linejoin:round;stroke-opacity:1"
         d="m 45.711614,24.664606 -2.904959,-7.843682 c -0.426511,1.852275 -0.977339,3.530509 0.226383,7.665111 z"
         id="path1053"
         inkscape:connector-curvature="0"
         sodipodi:nodetypes="cccc" />
      <path
         inkscape:connector-curvature="0"
         id="path1055"
         d="m 52.224631,18.682721 2.335978,3.977475 -1.452094,2.462247 -2.714785,-0.126269 -1.010153,-2.272843 z"
         style="fill:#008000;stroke:#165016;stroke-width:1px;stroke-linecap:butt;stroke-linejoin:round;stroke-opacity:1" />
      <path
         inkscape:connector-curvature="0"
         id="path977"
         d="m 41.224239,23.546187 4.945047,9.098885 11.472507,0.791207 4.549443,-8.505479 z"
         style="fill:#217821;stroke:#165016;stroke-width:1;stroke-linecap:round;stroke-linejoin:round;stroke-miterlimit:4;stroke-dasharray:none;stroke-opacity:1" />
      <path
         inkscape:connector-curvature="0"
         id="path981"
         d="m 44.092368,15.33741 7.51647,1.780216 -1.978019,2.571424 -3.164829,-1.186811 z"
         style="fill:#ff0000;stroke:#800000;stroke-width:1;stroke-linecap:round;stroke-linejoin:round;stroke-miterlimit:4;stroke-dasharray:none;stroke-opacity:1" />
      <path
         style="fill:#ff0000;stroke:#800000;stroke-width:1;stroke-linecap:round;stroke-linejoin:round;stroke-miterlimit:4;stroke-dasharray:none;stroke-opacity:1"
         d="m 59.365102,15.978111 -6.287661,1.489183 1.654648,2.151042 2.647437,-0.992789 z"
         id="path983"
         inkscape:connector-curvature="0" />
    </g>
    <g
       id="orcBootR"
       inkscape:label="#g1467">
      <path
         inkscape:connector-curvature="0"
         id="path1041"
         d="m 26.061371,90.431327 0.791208,-9.692291 v 0 l 9.296687,-0.989009 v 0 l 0.791207,7.912074 0.791207,3.560433 -1.780216,3.758236 -8.50548,-0.98901 z"
         style="fill:#552200;stroke:#2b1100;stroke-width:1;stroke-linecap:butt;stroke-linejoin:miter;stroke-miterlimit:4;stroke-dasharray:none;stroke-opacity:1" />
      <path
         sodipodi:nodetypes="cccccccc"
         inkscape:connector-curvature="0"
         id="path1037"
         d="m 23.687749,95.178572 -2.967028,-1.186812 0.395604,-5.934055 4.351641,-1.186811 8.901083,1.384613 1.780217,3.362631 -2.373623,3.560434 z"
         style="fill:#552200;stroke:#2b1100;stroke-width:1;stroke-linecap:butt;stroke-linejoin:miter;stroke-miterlimit:4;stroke-dasharray:none;stroke-opacity:1" />
      <path
         style="fill:#ff6600;stroke:#aa4400;stroke-width:1;stroke-linecap:butt;stroke-linejoin:miter;stroke-miterlimit:4;stroke-dasharray:none;stroke-opacity:1"
         d="m 35.401513,74.74626 3.115651,0.710284 0.533322,5.923265 -4.113731,1.850005 -9.008113,0.01843 -2.282154,-3.044377 1.153,-5.388139 z"
         id="path1039"
         inkscape:connector-curvature="0" />
    </g>
    <g
       id="orcBootL"
       inkscape:label="#g1472">
      <path
         style="fill:#552200;stroke:#2b1100;stroke-width:1;stroke-linecap:butt;stroke-linejoin:miter;stroke-miterlimit:4;stroke-dasharray:none;stroke-opacity:1"
         d="m 75.459354,90.175367 -0.791207,-9.692291 v 0 L 65.37146,79.494067 v 0 l -0.791207,7.912074 -0.791208,3.560434 1.780217,3.758235 8.505479,-0.989009 z"
         id="path1043"
         inkscape:connector-curvature="0" />
      <path
         style="fill:#552200;stroke:#2b1100;stroke-width:1;stroke-linecap:butt;stroke-linejoin:miter;stroke-miterlimit:4;stroke-dasharray:none;stroke-opacity:1"
         d="m 77.832976,94.922612 2.967029,-1.186811 -0.395604,-5.934056 -4.351642,-1.18681 -8.901083,1.384613 -1.780216,3.362631 2.373623,3.560433 z"
         id="path1045"
         inkscape:connector-curvature="0"
         sodipodi:nodetypes="cccccccc" />
      <path
         inkscape:connector-curvature="0"
         id="path1047"
         d="m 66.119213,74.490301 -3.115651,0.710283 -0.533322,5.923266 4.113731,1.850004 9.008112,0.01843 2.282155,-3.044377 -1.153001,-5.388138 z"
         style="fill:#ff6600;stroke:#aa4400;stroke-width:1;stroke-linecap:butt;stroke-linejoin:miter;stroke-miterlimit:4;stroke-dasharray:none;stroke-opacity:1" />
    </g>
    <g
       id="orcShield"
       inkscape:label="#g1453">
      <ellipse
         ry="17.129702"
         rx="12.457746"
         cy="46.243748"
         cx="79.617165"
         id="path1021"
         style="opacity:1;vector-effect:none;fill:#ac9d93;fill-opacity:1;stroke:#6c5d53;stroke-width:1;stroke-linecap:round;stroke-linejoin:round;stroke-miterlimit:4;stroke-dasharray:none;stroke-dashoffset:0;stroke-opacity:1;paint-order:markers fill stroke" />
      <path
         sodipodi:nodetypes="ccccc"
         inkscape:connector-curvature="0"
         id="path1049"
         d="m 80.355787,40.0703 c -2.188837,4.794314 -1.175874,7.987727 0,11.099686 l 5.308545,-3.86076 c 2.483773,-1.769516 3.17735,-3.53903 -0.32173,-5.308545 z"
         style="fill:#ac9d93;stroke:#6c5d53;stroke-width:1;stroke-linecap:butt;stroke-linejoin:miter;stroke-miterlimit:4;stroke-dasharray:none;stroke-opacity:1" />
    </g>
    <g
       id="orcSword"
       inkscape:label="#g1335">
      <circle
         transform="rotate(-45)"
         r="3.0304575"
         cy="23.591419"
         cx="-23.07246"
         id="path1309"
         style="opacity:1;vector-effect:none;fill:#666666;fill-opacity:1;stroke:#000000;stroke-width:1;stroke-linecap:round;stroke-linejoin:round;stroke-miterlimit:4;stroke-dasharray:none;stroke-dashoffset:0;stroke-opacity:1;paint-order:markers fill stroke" />
      <path
         style="display:inline;fill:#217821;stroke:#165016;stroke-width:1;stroke-linecap:butt;stroke-linejoin:miter;stroke-miterlimit:4;stroke-dasharray:none;stroke-opacity:1"
         d="m -6.814161,27.917846 3.989529,3.441545 2.16761897,-0.167845 1.59755501,0.119073 L 2.552082,27.49367 2.432979,24.819095 1.342972,22.832996 -0.88450203,21.908807 -2.227774,18.732745 l -3.91314,2.562601 -1.2687345,2.678469 z"
         id="path1009"
         inkscape:connector-curvature="0"
         sodipodi:nodetypes="cccccccccccc" />
      <path
         style="display:inline;fill:#217821;stroke:#165016;stroke-width:1;stroke-linecap:butt;stroke-linejoin:miter;stroke-miterlimit:4;stroke-dasharray:none;stroke-opacity:1"
         d="m -4.616356,20.559688 0.707336,-1.437367 2.746941,-1.834669 3.223623,2.003387 0.12386,1.390267 -3.447324,-0.582155 -1.144514,1.974859"
         id="path1011"
         inkscape:connector-curvature="0"
         sodipodi:nodetypes="ccccccc" />
      <path
         sodipodi:nodetypes="ccccccc"
         inkscape:connector-curvature="0"
         id="path1013"
         d="M -0.65701503,31.191548 0.94053898,31.310621 3.914629,29.873095 3.822209,26.078789 2.686684,25.267147 1.440663,28.533704 0.67022298,28.481384"
         style="display:inline;fill:#217821;stroke:#165016;stroke-width:1;stroke-linecap:butt;stroke-linejoin:miter;stroke-miterlimit:4;stroke-dasharray:none;stroke-opacity:1" />
      <path
         style="display:inline;fill:#217821;stroke:#165016;stroke-width:1;stroke-linecap:butt;stroke-linejoin:miter;stroke-miterlimit:4;stroke-dasharray:none;stroke-opacity:1"
         d="M 0.07411598,29.267053 1.671671,29.386124 4.645763,27.948599 4.553343,24.154294 3.417816,23.342651 2.171796,26.60921 -0.01504902,26.57969"
         id="path1015"
         inkscape:connector-curvature="0"
         sodipodi:nodetypes="ccccccc" />
      <path
         sodipodi:nodetypes="ccccccc"
         inkscape:connector-curvature="0"
         id="path1017"
         d="M 0.57423298,26.490149 2.171788,26.60922 5.14588,25.171694 5.05346,21.377384 3.917926,20.565752 2.671907,23.832313 0.38941298,23.817553"
         style="display:inline;fill:#217821;stroke:#165016;stroke-width:1;stroke-linecap:butt;stroke-linejoin:miter;stroke-miterlimit:4;stroke-dasharray:none;stroke-opacity:1" />
      <path
         style="display:inline;fill:#217821;stroke:#165016;stroke-width:1;stroke-linecap:butt;stroke-linejoin:miter;stroke-miterlimit:4;stroke-dasharray:none;stroke-opacity:1"
         d="M -0.69968303,24.581399 0.89787098,24.700471 3.871961,23.262947 3.779541,19.468639 2.644007,18.657006 1.397986,21.923565 -0.88450603,21.908805"
         id="path1019"
         inkscape:connector-curvature="0"
         sodipodi:nodetypes="ccccccc" />
      <path
         style="display:inline;fill:#666666;stroke:#000000;stroke-width:1;stroke-miterlimit:4;stroke-dasharray:none"
         d="m 5.002949,16.776385 0.922684,-4.65e-4 0.922688,-4.65e-4 -0.08736,0.438923 c -0.130939,0.657879 -1.049625,1.961629 -1.807762,2.565491 -0.388264,0.30924 -1.099738,0.673455 -1.689132,0.864653 -2.45667302,0.614068 -4.666691,0.389534 -6.702755,-0.426457 -0.984898,-0.502373 -2.414456,-2.363854 -2.414056,-3.143382 1.36e-4,-0.263578 0.08916,-0.29247 0.902259,-0.292912 l 0.902105,-4.65e-4 z M -0.63102003,16.636042 0.47165698,16.635453 1.574336,16.63486 Z"
         id="path1311"
         inkscape:connector-curvature="0"
         inkscape:label="#path847-3"
         sodipodi:nodetypes="ccccccccccccccc" />
      <path
         inkscape:connector-curvature="0"
         id="broadsword-3"
         d="m 0.42837898,-35.439305 c -0.166445,0.191872 -1.23072601,3.203874 -1.89344398,5.357162 -0.736947,2.394468 -1.542531,5.923812 -1.878251,8.228402 -0.367533,2.522849 -0.491518,7.32702 -0.602147,23.4753917 l -0.10358,15.1599843 9.0529,-0.0041 L 4.911327,3.9101247 C 4.788472,-13.368678 4.643365,-19.212114 4.269129,-21.828881 3.732155,-25.583577 2.666161,-29.728718 1.248733,-33.577626 0.84944198,-34.661856 0.48057098,-35.498144 0.42837898,-35.439305 Z m -0.04972,6.391582 c 0.01704,-0.03094 0.03428,-0.04834 0.05386,-0.04833 0.07828,-4.1e-5 0.142481,0.340491 0.142251,0.755444 -2.21e-4,0.414939 0.06133,2.721316 0.136725,5.125141 0.159206,5.075989 0.36141002,14.3240357 0.55381002,25.2997837 0.07464,4.257758 0.174857,9.2739793 0.222352,11.1466003 l 0.08701,3.404331 -1.10347502,0.0014 h -1.10209201 l 0.100819,-6.7023219 C -0.38342102,0.1413797 -0.02179502,-17.538236 0.14525998,-23.0746 c 0.07971,-2.641447 0.144728,-5.077304 0.145012,-5.412404 1.77e-4,-0.251369 0.03726,-0.467883 0.08839,-0.560714 z"
         style="display:inline;fill:#b3b3b3;stroke:#999999;stroke-width:1;stroke-miterlimit:4;stroke-dasharray:none" />
      <path
         inkscape:connector-curvature="0"
         id="path1323"
         d="m 0.37854098,-29.048303 c -0.05113,0.09283 -0.08821,0.309346 -0.08839,0.560713 -2.89e-4,0.335101 -0.0653,2.770958 -0.145012,5.412405 -0.167057,5.536363 -0.528683,23.2159777 -0.67534301,33.0089051 l -0.100818,6.7023219 H 0.47106998 L 1.574543,16.634642 1.487533,13.230309 C 1.440044,11.357689 1.339831,6.3414677 1.265187,2.0837107 1.072788,-8.8920183 0.87058198,-18.140065 0.71137698,-23.216053 c -0.0754,-2.403826 -0.136944,-4.710203 -0.136725,-5.125143 2.31e-4,-0.414953 -0.06397,-0.755488 -0.142251,-0.755444 -0.01958,-3e-6 -0.03682,0.0174 -0.05386,0.04834 z"
         style="fill:#999999;stroke:#999999;stroke-width:1;stroke-linecap:butt;stroke-linejoin:miter;stroke-miterlimit:4;stroke-dasharray:none;stroke-opacity:1" />
    </g>
  </g>
  <g
     inkscape:groupmode="layer"
     id="layer5"
     inkscape:label="enemies" />
  <g
     inkscape:groupmode="layer"
     id="layer3"
     inkscape:label="score"
     style="display:none">
    <text
       xml:space="preserve"
       style="font-style:normal;font-weight:normal;font-size:40px;line-height:1.25;font-family:sans-serif;letter-spacing:0px;word-spacing:0px;fill:#000000;fill-opacity:1;stroke:none"
       x="13.185451"
       y="62.282455"
       id="text827"><tspan
         sodipodi:role="line"
         id="tspan825"
         x="13.185451"
         y="62.282455">999</tspan></text>
  </g>
</svg>
