<?xml version="1.0" encoding="UTF-8" standalone="no"?>
<svg
   xmlns:dc="http://purl.org/dc/elements/1.1/"
   xmlns:cc="http://creativecommons.org/ns#"
   xmlns:rdf="http://www.w3.org/1999/02/22-rdf-syntax-ns#"
   xmlns:svg="http://www.w3.org/2000/svg"
   xmlns="http://www.w3.org/2000/svg"
   id="svg8"
   version="1.1"
   viewBox="0 0 100 100"
   height="100"
   width="100">
  <defs
     id="defs2" />
  <metadata
     id="metadata5">
    <rdf:RDF>
      <cc:Work
         rdf:about="">
        <dc:format>image/svg+xml</dc:format>
        <dc:type
           rdf:resource="http://purl.org/dc/dcmitype/StillImage" />
        <dc:title></dc:title>
      </cc:Work>
    </rdf:RDF>
  </metadata>
  <g
     style="display:none"
     id="layer1">
    <rect
       rx="8.3928576"
       ry="8.3035746"
       y="5"
       x="5"
       height="90"
       width="90"
       id="rect834"
       style="opacity:1;vector-effect:none;fill:#ff0000;fill-opacity:1;stroke:none;stroke-width:1.00157475;stroke-linecap:round;stroke-linejoin:round;stroke-miterlimit:4;stroke-dasharray:none;stroke-dashoffset:0;stroke-opacity:1;paint-order:markers fill stroke" />
    <path
       id="path847"
       d="m 88.808425,13.040436 c -2.73733,5.966322 -6.20914,11.864347 -9.84281,16.721268 -2.53242,3.384944 -8.97434,10.159518 -28.37088,29.835937 l -14.4435,14.651916 1.05152,1.050414 1.05153,1.050414 -0.59578,0.396769 c -0.89299,0.594688 -3.4135,1.022384 -4.95981,0.841606 -0.79189,-0.0926 -2.01409,-0.491188 -2.90161,-0.946345 -0.87127,-0.446825 -1.72655,-0.727987 -1.98068,-0.651118 -0.67296,0.203543 -1.40731,1.031294 -1.36058,1.533631 0.0559,0.601001 -0.2188,0.830288 -1.12428,0.938323 l -0.76257,0.091 -0.13577,0.806404 c -0.1679,0.99726 -0.32062,1.153844 -1.36576,1.400302 -0.76968,0.181507 -0.84881,0.250534 -1.05938,0.924059 -0.21878,0.699756 -0.43824,0.912181 -2.13297,2.064646 -0.43388,0.295047 -0.61674,0.64012 -0.72974,1.377118 -0.30077,1.961566 -0.81085,3.022839 -1.90897,3.971801 -0.82939,0.716738 -1.19685,0.88426 -1.97624,0.900933 -0.52657,0.01129 -1.29937,-0.176183 -1.71734,-0.416548 -0.55216,-0.317553 -0.89806,-0.354424 -1.26511,-0.134897 -0.45372,0.271382 -0.58744,0.219967 -1.31297,-0.504794 -0.73121,-0.730444 -0.77297,-0.841735 -0.44042,-1.173932 0.29382,-0.293509 0.26377,-0.5845 -0.15008,-1.453317 -1.1448,-2.403357 0.40804,-4.627005 3.68678,-5.279452 1.63766,-0.325883 2.33473,-0.798062 2.84113,-1.924535 0.21974,-0.488801 0.4749,-0.695062 1.19803,-0.968412 0.89542,-0.33848 0.9253,-0.371305 1.17255,-1.288051 l 0.25371,-0.940721 0.95252,-0.259445 c 0.77973,-0.212384 0.96675,-0.345732 1.031,-0.735049 0.15297,-0.927055 0.3312,-1.153015 1.06623,-1.351784 1.51729,-0.410314 1.82912,-1.357328 0.9807,-2.978386 -0.34664,-0.662316 -0.75714,-1.59138 -0.91222,-2.064577 -0.55382,-1.689845 -0.0774,-5.42287 0.80442,-6.303794 0.29818,-0.297863 0.43224,-0.229146 1.35889,0.69651 l 1.02807,1.026982 17.25959,-17.022997 c 18.38439,-18.132389 23.95657,-23.424298 27.2277,-25.858182 2.98811,-2.223299 7.8968,-5.296454 11.44355,-7.16439 3.1895,-1.679776 7.80801,-3.872336 8.21454,-3.899707 0.12596,-0.00799 -0.40189,1.359705 -1.17299,3.04041 z m -6.84733,4.663546 c -0.37921,0.378578 -3.20733,3.057612 -6.28471,5.953426 -6.45005,6.069473 -26.852,25.647186 -38.09156,36.552642 l -7.69219,7.463542 1.25665,1.255317 1.25666,1.255316 3.75125,-3.948006 c 2.0632,-2.171403 7.62051,-7.956358 12.34959,-12.855464 12.19074,-12.629045 22.41772,-23.317541 27.97562,-29.238112 2.63205,-2.803802 5.16961,-5.481478 5.63903,-5.95039 0.46941,-0.468922 0.7805,-0.925477 0.6913,-1.014582 -0.0892,-0.0891 -0.47244,0.147733 -0.85164,0.526311 z"
       style="fill:#800000;stroke-width:0.22923282" />
  </g>
  <g
     id="layer2">
    <path
       id="broadsword"
       d="m 1.1827516,-82.061461 c 2.2319881,6.060783 3.9090699,12.585468 4.7546227,18.497889 0.5892936,4.120554 0.8192354,13.323859 1.0126963,40.532309 l 0.1440673,20.2605864 1.4529273,-7.33e-4 1.4529345,-7.33e-4 -0.1375636,0.691162 c -0.2061964,1.035944 -1.65282,3.088927 -2.8466409,4.039815 -0.6113891,0.486951 -1.7317327,1.060472 -2.6598364,1.361549 -0.9111118,0.295563 -1.6966581,0.69535 -1.8191872,0.925839 -0.3244773,0.610354 -0.2599155,1.698123 0.1196181,2.015385 0.4540728,0.37958 0.4226819,0.730532 -0.128539,1.4362916 L 2.0636388,8.292283 2.5272034,8.948366 c 0.5732818,0.811359 0.5759527,1.026742 0.023876,1.926147 -0.4065645,0.662359 -0.4135481,0.765529 -0.093537,1.381167 0.3324663,0.639622 0.3276036,0.940366 -0.047228,2.92301 -0.095966,0.507588 0.016161,0.875214 0.44749,1.467111 1.1479982,1.575377 1.5290009,2.669587 1.4258982,4.095074 -0.077869,1.076645 -0.2160728,1.44918 -0.7432882,2.003518 -0.3561791,0.37454 -1.0199527,0.782131 -1.4750155,0.905807 -0.6011754,0.163368 -0.865759,0.37856 -0.9677327,0.787023 -0.12603813,0.504925 -0.25400904,0.562238 -1.25649922,0.562773 -1.01034458,5.32e-4 -1.11613858,-0.04788 -1.11589458,-0.510781 2.182e-4,-0.408987 -0.2216993,-0.590693 -1.1083221,-0.907508 -2.4526055,-0.876396 -2.9162907,-3.506154 -1.1009084,-6.243635 0.9067444,-1.367313 1.0621966,-2.181519 0.6335813,-3.318571 -0.185984,-0.493392 -0.1521833,-0.814703 0.1587198,-1.5086 0.3849756,-0.859227 0.38294,-0.902892 -0.079839,-1.71344 L -3.2463809,9.965719 -2.7673041,9.121768 C -2.3751355,8.43091 -2.3380356,8.207821 -2.5627328,7.891979 -3.0978065,7.1399054 -3.130799,6.8584474 -2.7601174,6.2081964 c 0.7651791,-1.342287 0.3261185,-2.218883 -1.3808678,-2.756909 -0.6974244,-0.219821 -1.6233762,-0.580923 -2.0576624,-0.802444 -1.550897,-0.791071 -3.8019714,-3.722317 -3.8013523,-4.949805 2.18e-4,-0.415053 0.140385,-0.460555 1.4207618,-0.461248 l 1.420521,-7.32e-4 0.1635405,-23.8726754 c 0.174189,-25.428451 0.3679223,-32.993658 0.9466546,-36.966344 0.5286633,-3.628965 1.7974467,-9.187121 2.9578996,-12.957632 1.0435721,-3.390722 2.72047033,-8.133604 2.98255783,-8.435751 0.0815376,-0.09329 0.66207436,1.226685 1.29082347,2.933992 z m -1.50950472,8.015591 c -4.3636e-4,0.527686 -0.10349005,4.362595 -0.22899435,8.522027 -0.2630677,8.717969 -0.83280583,36.557799 -1.06374963,51.978477 l -0.1580492,10.5536924 1.73635618,-9.25e-4 1.73636262,-9.34e-4 -0.1360045,-5.361377 C 1.4843743,-11.303675 1.3270189,-19.20186 1.2094907,-25.906445 0.90651706,-43.189696 0.58750161,-57.754186 0.33681161,-65.747218 0.2180907,-69.532472 0.12123706,-73.1641 0.12158888,-73.817501 c 3.6364e-4,-0.65341 -0.10021327,-1.187965 -0.22346372,-1.187892 -0.12324691,6.5e-5 -0.22444837,0.431855 -0.22487828,0.959532 z"
       style="fill:#800000;stroke-width:0.22491477" />
  </g>
</svg>
