<?xml version="1.0" encoding="UTF-8" standalone="no"?>
<svg
   xmlns:dc="http://purl.org/dc/elements/1.1/"
   xmlns:cc="http://creativecommons.org/ns#"
   xmlns:rdf="http://www.w3.org/1999/02/22-rdf-syntax-ns#"
   xmlns:svg="http://www.w3.org/2000/svg"
   xmlns="http://www.w3.org/2000/svg"
   id="svg8"
   version="1.1"
   viewBox="0 0 100 100"
   height="100"
   width="100">
  <defs
     id="defs2">
    <clipPath
       id="clipPath1031"
       clipPathUnits="userSpaceOnUse">
      <rect
         ry="0"
         rx="0"
         y="0"
         x="0"
         height="100"
         width="100"
         id="rect1033"
         style="display:inline;opacity:1;vector-effect:none;fill:#ffff00;fill-opacity:1;stroke:none;stroke-width:5.71428585;stroke-linecap:round;stroke-linejoin:round;stroke-miterlimit:4;stroke-dasharray:none;stroke-dashoffset:0;stroke-opacity:1;paint-order:markers fill stroke" />
    </clipPath>
  </defs>
  <metadata
     id="metadata5">
    <rdf:RDF>
      <cc:Work
         rdf:about="">
        <dc:format>image/svg+xml</dc:format>
        <dc:type
           rdf:resource="http://purl.org/dc/dcmitype/StillImage" />
        <dc:title></dc:title>
      </cc:Work>
    </rdf:RDF>
  </metadata>
  <g
     style="display:none"
     id="layer7" />
  <g
     style="display:none"
     id="layer14">
    <path
       id="rect5621"
       d="M 0,5e-6 H 99.999997 V 100 H 0 Z"
       style="opacity:1;vector-effect:none;fill:#ffe680;fill-opacity:1;stroke:none;stroke-width:21.62162209;stroke-linecap:round;stroke-linejoin:round;stroke-miterlimit:4;stroke-dasharray:none;stroke-dashoffset:0;stroke-opacity:1;paint-order:markers fill stroke" />
    <path
       style="opacity:1;vector-effect:none;fill:#d4aa00;fill-opacity:1;stroke:none;stroke-width:13.93367481;stroke-linecap:round;stroke-linejoin:round;stroke-miterlimit:4;stroke-dasharray:none;stroke-dashoffset:0;stroke-opacity:1;paint-order:markers fill stroke"
       d="M 61.79393,5.9844473 94.015555,61.793936 38.206068,94.015556 5.9844457,38.206069 Z"
       id="path5624" />
    <g
       id="orcSword-7-6"
       style="display:inline"
       transform="matrix(-0.09350084,1.7108944,-1.7108944,-0.09350084,159.48928,46.778735)">
      <path
         id="path1647-3-3"
         d="m -20.116734,89.057483 c 0.08767,-0.110693 1.218734,-0.913248 2.513333,-1.783545 4.241705,-2.851501 6.094569,-5.570572 5.120199,-7.513865 l -0.377397,-0.752679 2.778881,-0.662802 c 9.08474678,-2.166833 11.01177862,-6.184946 16.6832778,-12.499715 2.7033347,-3.009954 3.7979422,-4.602864 6.6717682,-9.70898 0.970247,-1.723894 2.005032,-3.440474 2.29965,-3.814547 0.42959,-0.545493 0.566067,-0.872057 0.22328,-1.422081 l 6.71744,3.905013 -0.358611,1.918811 c -0.22376,1.197262 -1.325617,5.634552 -1.565846,5.93754 -0.02734,0.03436 -0.366887,-0.188682 -0.754698,-0.495735 -0.610946,-0.483666 -0.77766,-0.485817 -1.24829,-0.01577 -0.383724,0.383254 -0.522134,0.906764 -0.471418,1.783375 0.122603,2.119882 -1.140513,4.401079 -5.436405,9.818178 -4.7145919,5.94534 -6.6814808,7.671887 -12.10922068,10.630772 -5.57047962,3.036701 -14.11061132,5.23449 -19.27547132,4.960515 -0.863493,-0.04581 -1.498203,-0.173818 -1.410469,-0.284473 z"
         style="display:inline;fill:#483e37;stroke-width:0.27505341" />
      <rect
         transform="matrix(0.8660254,0.5,0.5,-0.8660254,0,0)"
         ry="8.3035698"
         rx="8.1403198"
         y="-34.949963"
         x="40.299603"
         height="14.107142"
         width="5.7142859"
         id="rect299-2"
         style="opacity:1;vector-effect:none;fill:#666666;fill-opacity:1;stroke:#333333;stroke-width:1;stroke-linecap:round;stroke-linejoin:round;stroke-miterlimit:4;stroke-dasharray:none;stroke-dashoffset:0;stroke-opacity:1;paint-order:markers fill stroke" />
      <path
         id="path1664-0-7"
         d="m -20.053732,89.14178 c -0.06063,-0.02831 -0.08599,-0.0567 -0.06406,-0.08435 0.08767,-0.110693 1.21877,-0.912675 2.513369,-1.78297 1.075296,-0.722872 1.994614,-1.437069 2.755729,-2.132438 C 9.5688147,81.48624 12.712296,66.323613 21.497349,54.212263 l 1.016306,0.591267 -0.359336,1.919262 c -0.22376,1.197261 -1.325517,5.635529 -1.565748,5.938516 -0.02734,0.03436 -0.365585,-0.188807 -0.753397,-0.49586 -0.610945,-0.483666 -0.77789,-0.487233 -1.248518,-0.01719 -0.383725,0.383255 -0.521815,0.90821 -0.471144,1.784796 0.122602,2.119881 -1.141931,4.399924 -5.437824,9.817022 -4.7145925,5.945342 -6.6804026,7.673191 -12.10814378,10.632076 -5.57047942,3.036701 -14.11066022,5.234376 -19.27552022,4.960401 -0.64762,-0.03436 -1.165779,-0.115944 -1.347755,-0.200778 z"
         style="display:inline;fill:#6c5353;stroke-width:0.27505341" />
      <circle
         style="opacity:1;vector-effect:none;fill:#666666;fill-opacity:1;stroke:#333333;stroke-width:1;stroke-linecap:round;stroke-linejoin:round;stroke-miterlimit:4;stroke-dasharray:none;stroke-dashoffset:0;stroke-opacity:1;paint-order:markers fill stroke"
         id="path1309-4-6"
         cx="44.65102"
         cy="16.381838"
         r="3.0304575"
         transform="matrix(0.25881905,0.96592583,0.96592583,-0.25881905,0,0)" />
      <path
         id="path1311-4-2"
         d="m 23.285076,55.254535 0.798836,0.461744 0.798839,0.461747 0.143804,-0.423799 c 0.215544,-0.635209 0.07181,-2.223633 -0.282821,-3.12566 -0.181628,-0.461942 -0.615674,-1.133098 -1.030505,-1.593378 -1.820507,-1.760135 -3.846706,-2.670692 -6.017985,-2.982055 -1.104132,-0.05738 -3.272906,0.839931 -3.662324,1.515221 -0.131672,0.228333 -0.06902,0.297867 0.634923,0.704799 l 0.781013,0.451454 z m -4.949332,-2.695444 0.954652,0.551849 0.954652,0.551853 z"
         style="display:inline;fill:#666666;stroke:#333333;stroke-width:1;stroke-miterlimit:4;stroke-dasharray:none" />
    </g>
    <g
       id="mySword-3"
       style="display:inline"
       transform="matrix(0.72015254,0.72015582,-0.72015254,0.72015582,55.829261,45.646664)">
      <path
         id="broadsword-3-6"
         d="m 0.27773317,-43.140926 c -0.23889987,0.275395 -1.76647117,4.598547 -2.71767567,7.689179 -1.0577461,3.436799 -2.2140074,8.502496 -2.6958691,11.810293 -0.5275231,3.621066 -0.7054798,10.516532 -0.8642665,33.694422 L -6.1487473,31.812218 6.8449544,31.806333 6.7121453,13.337634 C 6.5358105,-11.462774 6.3275373,-19.849905 5.7903933,-23.605773 5.0196701,-28.994919 3.4896401,-34.944474 1.4551941,-40.468843 0.88208835,-42.025047 0.35264478,-43.225378 0.27773317,-43.140926 Z m -0.0713635,9.17389 c 0.0244577,-0.04441 0.0492024,-0.06938 0.0773057,-0.06937 0.11235592,-5.9e-5 0.20450415,0.488709 0.20417403,1.084295 -3.1721e-4,0.595565 0.0880275,3.905927 0.19624251,7.356157 0.22850966,7.28561 0.51873469,20.5594075 0.79488809,36.312989 0.1071314,6.111195 0.2509737,13.311019 0.3191436,15.998807 l 0.1248862,4.886264 -1.58382678,0.002 H -1.2426587 l 0.1447064,-9.619897 c 0.21050226,-14.055896 0.72954703,-39.431594 0.96932244,-47.377982 0.11440842,-3.791291 0.20772929,-7.287496 0.20813692,-7.768468 2.5405e-4,-0.360792 0.05347958,-0.671557 0.12686689,-0.804798 z"
         style="display:inline;fill:#ececec;stroke:#cccccc;stroke-width:1.43530822;stroke-miterlimit:4;stroke-dasharray:none" />
      <path
         id="path1323-7"
         d="m 0.20620028,-33.967868 c -0.0733873,0.133239 -0.12660854,0.444007 -0.12686689,0.804796 -4.1481e-4,0.480973 -0.09372563,3.977178 -0.20813692,7.768469 -0.23977828,7.946387 -0.75882305,33.3220834 -0.96932537,47.377953 l -0.1447049,9.619897 H 0.33900791 L 1.9228318,31.601247 1.7979457,26.71498 C 1.7297829,24.027184 1.5859478,16.82736 1.4788106,10.716167 1.2026587,-5.0373875 0.91243077,-18.311185 0.68392252,-25.596792 c -0.10822223,-3.450231 -0.19655684,-6.760593 -0.19624251,-7.35616 3.3156e-4,-0.595585 -0.0918167,-1.084358 -0.20417403,-1.084295 -0.0281033,-4e-6 -0.052848,0.02498 -0.0773057,0.06938 z"
         style="display:inline;fill:#cccccc;stroke:#cccccc;stroke-width:1.43530822;stroke-linecap:butt;stroke-linejoin:miter;stroke-miterlimit:4;stroke-dasharray:none;stroke-opacity:1" />
      <path
         id="path1692-5"
         d="m 3.9120585,38.583134 c 0.6517347,0.544814 0.6066789,1.048539 -0.1844931,2.06152 l -0.6662873,0.853124 0.6653572,0.941682 c 0.8228364,1.16455 0.8266701,1.473691 0.034275,2.764614 -0.5835447,0.95069 -0.5935688,1.09877 -0.1342587,1.982401 0.4771926,0.918054 0.4702127,1.349715 -0.06779,4.19542 -0.1377466,0.728545 -0.2331099,1.063972 0.3859816,1.913527 l -8.1236665,-0.04263 c 0.6371448,-1.288489 0.6625167,-2.273152 0.1869719,-3.534697 -0.2669444,-0.70817 -0.2184296,-1.16935 0.2278121,-2.165306 0.5525592,-1.233256 0.5496369,-1.295929 -0.114595,-2.459315 l -0.6816064,-1.193806 0.6876232,-1.21133 c 0.5628834,-0.991594 0.6161319,-1.311795 0.2936224,-1.765126 -0.7679947,-1.079456 -0.8153498,-1.483435 -0.2833069,-2.416746 2.5005681,-1.701268 5.0350999,-2.75722 7.7743599,0.07666 z"
         style="fill:#0044aa;stroke:#002255;stroke-width:1.43530822;stroke-miterlimit:4;stroke-dasharray:none" />
      <path
         id="path1669-3"
         d="m 6.8436483,31.804683 1.3243359,-6.68e-4 1.3243416,-6.67e-4 -0.1253885,0.62999 c -0.1879378,0.944259 -1.5065354,2.815542 -2.5946956,3.68227 -0.5572785,0.443855 -1.578463,0.966616 -2.4244251,1.241044 -3.52608296,0.881376 -6.6981399,0.559101 -9.6205193,-0.612098 -1.4136322,-0.72106 -3.4654885,-3.392859 -3.4649144,-4.511722 1.952e-4,-0.378315 0.1279721,-0.419784 1.2950198,-0.420419 l 1.2947987,-6.67e-4 z m -8.0864821,-0.201436 1.58268137,-8.45e-4 1.58268433,-8.51e-4 z"
         style="display:inline;fill:#003380;fill-opacity:1;stroke:#002255;stroke-width:1.43530822;stroke-miterlimit:4;stroke-dasharray:none;stroke-opacity:1" />
      <path
         style="fill:#003380;fill-opacity:1;stroke:#002255;stroke-width:1.43530822;stroke-miterlimit:4;stroke-dasharray:none;stroke-opacity:1"
         d="m 3.584069,53.020394 c 0.7908075,-0.01516 0.510598,0.322541 1.1296895,1.172096 0.8147412,1.171856 1.6819774,3.126842 1.5339943,5.172855 -0.1117675,1.545317 -0.3101314,2.08002 -1.0668488,2.875666 -0.5112267,0.53758 -1.4639455,1.122599 -2.1171012,1.300112 -0.8628714,0.234483 -1.242631,0.54335 -1.3889951,1.12962 -0.1809034,0.724723 -0.3645812,0.806985 -1.80346339,0.807753 -1.45015651,7.64e-4 -1.60200341,-0.06872 -1.60165321,-0.733128 3.143e-4,-0.587022 -0.3182064,-0.847827 -1.5907837,-1.302554 -3.5202441,-1.257898 -4.185775,-5.032411 -1.5801423,-8.96154 0.6624221,-0.998892 0.1393111,-1.331645 0.9996018,-1.405355 z"
         id="path1694-5" />
    </g>
  </g>
  <g
     style="display:none"
     id="layer1">
    <path
       id="swingX"
       d="M 5,95 V 45 A 40.000001,40.000001 0 0 0 45,5 H 95 V 55 A 40.000001,40.000001 0 0 1 55,95 Z"
       style="opacity:1;vector-effect:none;fill:#80e5ff;fill-opacity:1;stroke:none;stroke-width:2.00811839;stroke-linecap:round;stroke-linejoin:round;stroke-miterlimit:4;stroke-dasharray:none;stroke-dashoffset:0;stroke-opacity:1;paint-order:markers fill stroke" />
    <g
       transform="rotate(180,-37.807816,8.513508)"
       id="g956">
      <path
         style="opacity:1;vector-effect:none;fill:#aa0000;fill-opacity:1;stroke:none;stroke-width:1.00157475;stroke-linecap:round;stroke-linejoin:round;stroke-miterlimit:4;stroke-dasharray:none;stroke-dashoffset:0;stroke-opacity:1;paint-order:markers fill stroke"
         d="M -32.577417,-37.885823 A 19.950514,19.950514 0 0 1 -52.52793,-17.935309 V -37.885823 Z"
         id="path831" />
      <path
         style="opacity:1;vector-effect:none;fill:#aa0000;fill-opacity:1;stroke:none;stroke-width:2.00811839;stroke-linecap:round;stroke-linejoin:round;stroke-miterlimit:4;stroke-dasharray:none;stroke-dashoffset:0;stroke-opacity:1;paint-order:markers fill stroke"
         d="m -20.154839,40.199225 a 40.000001,40.000001 0 0 0 -40,-40.00000119 V 40.199225 Z"
         id="path841" />
    </g>
    <path
       transform="matrix(1.5371429,0,0,1.5371429,5.9428567,10.338774)"
       d="m 94.115718,-39.696524 c -0.566975,3.199225 -1.577295,6.277844 -2.961815,9.16671 -5.094111,-1.793659 -8.94843,-2.548354 -10.251192,-0.58924 2.858303,-4.228444 4.559702,-9.130256 4.458278,-14.059516 0.04553,1.327721 1.208864,2.246131 2.903483,3.094193 1.68678,0.844139 3.883024,1.580583 5.851246,2.387853 z m -8.835695,17.962516 c -2.127704,2.38452 -4.553128,4.502807 -7.207126,6.285716 -3.525782,-4.140258 -6.481619,-6.702912 -8.569886,-5.651453 4.52619,-2.235788 8.541397,-5.790865 11.3997,-10.019309 -1.489276,2.266967 1.811478,5.854447 4.377312,9.385046 z m -16.758905,10.877295 c -3.075041,0.9564206 -6.302177,1.5009842 -9.612262,1.5645443 -0.0502,-0.4182175 -0.103095,-0.8275393 -0.158856,-1.2271663 -0.667029,-4.795293 -1.63159,-7.995249 -3.702181,-8.303315 1.225483,0.192123 2.462965,0.280567 3.702181,0.255069 3.690044,0.07593 7.364705,-0.858453 10.753011,-2.532164 -2.367853,1.208984 -1.353569,5.932556 -0.981893,10.243032 z m -20.223092,-0.219305 c -3.052128,-1.017062 -5.947039,-2.440859 -8.615587,-4.202245 2.481422,-4.820187 3.749192,-8.553553 1.956889,-10.112421 3.849052,3.399171 8.533855,5.803822 13.408491,6.568034 -1.319291,-0.188537 -2.409001,0.799825 -3.507181,2.336848 -1.130827,1.582715 -2.116534,3.526661 -3.242612,5.409784 z M 31.752051,-22.268291 c -2.083214,-2.423584 -3.863587,-5.108278 -5.271971,-7.984937 4.563536,-2.925877 7.489074,-5.48931 6.765271,-7.672606 1.531627,4.742289 4.544926,9.135979 8.393977,12.53515 -2.066489,-1.777236 -6.06053,1.039721 -9.887277,3.122393 z m -8.486445,-18.141177 c -0.243706,-1.565019 -0.381256,-3.157374 -0.404687,-4.769102 0.02473,-1.700992 0.176567,-3.380406 0.446155,-5.028881 5.408117,0.237444 9.273562,-0.133319 9.964149,-2.303495 -0.778436,2.382451 -1.183208,4.853944 -1.132212,7.332376 -0.05043,2.450828 0.344816,4.89487 1.10634,7.252736 -0.838163,-2.480945 -5.635869,-2.184916 -9.979745,-2.483634 z m 3.329134,-19.926567 c 1.428381,-2.866263 3.226887,-5.538698 5.326372,-7.948161 4.466482,3.103754 8.006312,4.844721 9.782961,3.260726 -3.858392,3.388012 -6.884648,7.77416 -8.43285,12.512524 0.787611,-2.524648 -3.290978,-5.087399 -6.676483,-7.825089 z m 13.30391,-14.884491 c 2.680697,-1.743143 5.585894,-3.146833 8.646444,-4.141925 2.241963,4.91621 4.348866,8.175097 6.584639,7.815277 -4.876741,0.745818 -9.567268,3.135692 -13.42566,6.523704 2.019694,-1.820964 -0.251443,-6.142441 -1.805423,-10.197056 z m 19.277604,-5.83826 c 3.305564,0.08943 6.526317,0.658004 9.593111,1.636571 -1.05739,5.286579 -1.273014,9.185418 0.809641,10.202507 -3.409322,-1.697361 -7.111357,-2.646345 -10.829006,-2.56985 -1.211611,-0.02493 -2.421564,0.05906 -3.620267,0.242384 2.168405,-0.361792 2.835706,-3.840633 3.620267,-7.578206 0.136794,-0.649211 0.276844,-1.30565 0.426254,-1.933406 z m 19.110687,6.294795 c 2.64163,1.800932 5.052822,3.93538 7.164431,6.334197 -3.66041,4.031324 -5.835182,7.308376 -4.500749,9.262812 -2.845325,-4.235966 -6.85117,-7.802181 -11.371617,-10.052726 1.232319,0.593253 2.575805,-0.03989 4.070614,-1.21291 1.528589,-1.199527 3.041479,-2.825814 4.637321,-4.331373 z m 12.978067,15.170607 c 1.364304,2.899042 2.352544,5.985974 2.895576,9.191648 -5.128562,1.456058 -8.688033,3.027797 -8.798696,5.223166 m 4.638112,0 c 0,0 0,0 0,0 z m -4.639011,0 c 0.100856,-4.901655 -1.580975,-9.776168 -4.410366,-13.988412 1.53202,2.217122 6.098549,0.552883 10.314385,-0.426402"
       id="path1237"
       style="opacity:1;vector-effect:none;fill:#b3b3b3;fill-opacity:1;stroke:none;stroke-width:5.71428585;stroke-linecap:round;stroke-linejoin:round;stroke-miterlimit:4;stroke-dasharray:none;stroke-dashoffset:0;stroke-opacity:1;paint-order:markers fill stroke" />
    <path
       style="opacity:1;vector-effect:none;fill:#80e5ff;fill-opacity:1;stroke:none;stroke-width:0.27890533;stroke-linecap:round;stroke-linejoin:round;stroke-miterlimit:4;stroke-dasharray:none;stroke-dashoffset:0;stroke-opacity:1;paint-order:markers fill stroke"
       d="m -20,-70.714286 v -6.944444 a 5.5555557,5.5555557 0 0 0 5.555556,-5.555556 H -7.5 v 6.944444 a 5.5555557,5.5555557 0 0 1 -5.555556,5.555556 z"
       id="path4958" />
    <path
       id="rect4974"
       d="m 28.182167,-107.32144 h 8.224563 c 0.512074,6.84734 1.659098,11.80994 4.486125,11.785721 H 23.571427 c 3.173925,-0.04722 3.834184,-6.447101 4.61074,-11.785721 z"
       style="opacity:1;vector-effect:none;fill:#b3b3b3;fill-opacity:1;stroke:none;stroke-width:3.58015394;stroke-linecap:round;stroke-linejoin:round;stroke-miterlimit:4;stroke-dasharray:none;stroke-dashoffset:0;stroke-opacity:1;paint-order:markers fill stroke" />
    <rect
       ry="2.9796948"
       y="140.99529"
       x="1.4334539"
       height="82.85714"
       width="10.620194"
       id="rect5048"
       style="opacity:1;vector-effect:none;fill:#b3b3b3;fill-opacity:1;stroke:none;stroke-width:4.59439468;stroke-linecap:round;stroke-linejoin:round;stroke-miterlimit:4;stroke-dasharray:none;stroke-dashoffset:0;stroke-opacity:1;paint-order:markers fill stroke" />
    <g
       id="options-cog">
      <path
         style="opacity:1;vector-effect:none;fill:#d4aa00;fill-opacity:1;stroke:none;stroke-width:5.54494047;stroke-linecap:round;stroke-linejoin:round;stroke-miterlimit:4;stroke-dasharray:none;stroke-dashoffset:0;stroke-opacity:1;paint-order:markers fill stroke"
         d="m 47.18667,0 c -1.99228,0 -3.594749,1.60481 -3.594749,3.5971 v 6.09339 a 40.841378,40.841378 0 0 0 -8.205455,2.18278 L 32.34802,6.60962 C 31.35187,4.88426 29.160951,4.29579 27.435591,5.29193 l -4.87,2.81451 c -1.725359,0.99615 -2.313821,3.18708 -1.317682,4.91244 l 3.043161,5.27308 a 40.841378,40.841378 0 0 0 -5.989677,6.00618 L 13.018881,21.24791 C 11.293509,20.25178 9.102588,20.84022 8.106452,22.56558 l -2.814511,4.87001 c -0.996135,1.72536 -0.407687,3.91628 1.317681,4.91242 l 5.294298,3.0573 A 40.841378,40.841378 0 0 0 9.716428,43.59192 H 3.597106 C 1.604824,43.59193 -4.9999883e-6,45.19438 0,47.18666 v 5.62667 c 5.0000117e-6,1.99227 1.604824,3.59475 3.597106,3.59475 h 6.093393 a 40.841378,40.841378 0 0 0 2.182777,8.20546 l -5.263654,3.03843 c -1.725363,0.99615 -2.313824,3.18708 -1.317681,4.91244 l 2.814511,4.87236 c 0.996144,1.72536 3.187067,2.31146 4.912429,1.31532 l 5.270727,-3.04316 a 40.841378,40.841378 0 0 0 6.008533,5.98968 l -3.050232,5.28486 c -0.996139,1.72536 -0.407683,3.91631 1.317682,4.91244 l 4.87,2.81214 c 1.725365,0.99614 3.91629,0.40769 4.912429,-1.31767 l 3.057304,-5.2943 a 40.841378,40.841378 0 0 0 8.186597,2.18749 v 6.11932 c 0,1.99228 1.602469,3.59711 3.594749,3.59711 h 5.626668 c 1.99228,0 3.59474,-1.60483 3.59474,-3.59711 v -6.09103 a 40.841378,40.841378 0 0 0 8.20546,-2.18514 l 3.03845,5.26366 c 0.99614,1.72537 3.18705,2.31383 4.91242,1.31767 l 4.87236,-2.81214 c 1.72536,-0.99616 2.31147,-3.18707 1.31533,-4.91244 l -3.04316,-5.27072 a 40.841378,40.841378 0 0 0 5.99202,-6.01089 l 5.28252,3.05023 c 1.72538,0.99614 3.9163,0.41005 4.91243,-1.31532 l 2.81216,-4.87236 c 0.99613,-1.72536 0.40769,-3.91629 -1.31769,-4.91244 l -5.2943,-3.0573 a 40.841378,40.841378 0 0 0 2.1875,-8.18659 h 6.11933 c 1.99227,0 3.597102,-1.60246 3.59709,-3.59475 v -5.62667 c -1e-5,-1.99228 -1.60482,-3.59474 -3.59709,-3.59474 h -6.09104 a 40.841378,40.841378 0 0 0 -2.18514,-8.20546 l 5.26365,-3.03845 c 1.72538,-0.99614 2.31384,-3.18705 1.31769,-4.91242 l -2.81216,-4.87001 c -0.99614,-1.72536 -3.18705,-2.31382 -4.91243,-1.31767 l -5.27072,3.04315 a 40.841378,40.841378 0 0 0 -6.0109,-5.98967 l 3.05024,-5.28251 c 0.99615,-1.72537 0.41005,-3.91631 -1.31533,-4.91244 l -4.87236,-2.81451 c -1.72536,-0.99613 -3.91628,-0.40769 -4.91242,1.31769 l -3.0573,5.2943 a 40.841378,40.841378 0 0 0 -8.18661,-2.1875 V 3.5971 C 56.408078,1.60481 54.805618,0 52.813338,0 Z"
         id="rect5052" />
      <circle
         style="opacity:1;vector-effect:none;fill:#ffdd55;fill-opacity:1;stroke:none;stroke-width:2.38632393;stroke-linecap:round;stroke-linejoin:round;stroke-miterlimit:4;stroke-dasharray:none;stroke-dashoffset:0;stroke-opacity:1;paint-order:markers fill stroke"
         id="circle5069"
         cx="50.000328"
         cy="50.000122"
         r="10.018854" />
      <circle
         r="30.543108"
         cy="50.000122"
         cx="50.000328"
         id="circle5283"
         style="opacity:1;vector-effect:none;fill:none;fill-opacity:1;stroke:#ffdd55;stroke-width:7.27485895;stroke-linecap:round;stroke-linejoin:round;stroke-miterlimit:4;stroke-dasharray:none;stroke-dashoffset:0;stroke-opacity:1;paint-order:markers fill stroke" />
    </g>
  </g>
  <g
     id="layer15">
    <g
       id="speed-notch">
      <path
         id="path5640"
         d="M 4.4511719 0.71679688 A 5.0005 5.0005 0 0 0 -0.1640625 7.9941406 L 20.730469 48.753906 L 8.3984375 92.941406 A 5.0005 5.0005 0 0 0 13.488281 99.277344 L 85.273438 95.349609 A 5.0005 5.0005 0 0 0 89.882812 91.429688 L 99.527344 47.5 A 5.0005 5.0005 0 0 0 99.296875 44.601562 L 84.296875 6.3867188 A 5.0005 5.0005 0 0 0 79.808594 3.2167969 L 4.4511719 0.71679688 z "
         style="fill:#00ff00;stroke:none;stroke-width:10;stroke-linecap:round;stroke-linejoin:round;stroke-opacity:1;stroke-miterlimit:4;stroke-dasharray:none" />
      <path
         style="fill:none;stroke:#000000;stroke-width:10;stroke-linecap:round;stroke-linejoin:round;stroke-opacity:0.33333334;stroke-miterlimit:4;stroke-dasharray:none"
         d="m 4.2857143,5.7142857 75.3571427,2.5 15,38.2142853 L 85,90.357143 13.214286,94.285714 26.071429,48.214286 Z"
         id="path5627" />
      <path
         style="fill:#000000;stroke:none;stroke-width:1px;stroke-linecap:butt;stroke-linejoin:miter;stroke-opacity:1;fill-opacity:0.33333334"
         d="M 48.39947,53.942949 50.576799,22.358852 68.33055,27.855438 53.574073,55.329479 Z"
         id="path5629" />
      <circle
         transform="rotate(15)"
         style="opacity:1;vector-effect:none;fill:#000000;fill-opacity:0.33333334;stroke:none;stroke-width:5.71428585;stroke-linecap:round;stroke-linejoin:round;stroke-miterlimit:4;stroke-dasharray:none;stroke-dashoffset:0;stroke-opacity:1;paint-order:markers fill stroke"
         id="path5631"
         cx="63.926048"
         cy="50.471043"
         r="6.9642859" />
    </g>
  </g>
  <g
     style="display:none"
     id="layer4">
    <g
       clip-path="url(#clipPath1031)"
       id="fatal">
      <path
         style="opacity:1;vector-effect:none;fill:#ff0000;fill-opacity:1;stroke:none;stroke-width:2.44552493;stroke-linecap:round;stroke-linejoin:round;stroke-miterlimit:4;stroke-dasharray:none;stroke-dashoffset:0;stroke-opacity:1;paint-order:markers fill stroke"
         d="m 8.578644,13.621757 a 29.289321,29.289321 0 0 0 0,41.421356 L 50,96.464466 91.421359,55.043113 a 29.289321,29.289321 0 0 0 0,-41.421356 29.289321,29.289321 0 0 0 -41.421359,0 29.289321,29.289321 0 0 0 -41.421356,0 z"
         id="path830" />
      <path
         style="opacity:1;vector-effect:none;fill:#aa0000;fill-opacity:1;stroke:none;stroke-width:2.44552493;stroke-linecap:round;stroke-linejoin:round;stroke-miterlimit:4;stroke-dasharray:none;stroke-dashoffset:0;stroke-opacity:1;paint-order:markers fill stroke"
         d="m 70.283203,5.046875 c -0.901936,0.016345 -1.802636,0.07435 -2.699219,0.1738281 0.331267,0.1617589 0.65945,0.3297576 0.984375,0.5039063 C 82.577135,13.812604 87.376943,31.725534 79.289062,45.734375 L 50,96.464844 91.421875,55.042969 c 11.438535,-11.438251 11.438535,-29.983624 0,-41.421875 C 85.823895,8.0238052 78.198603,4.930852 70.283203,5.046875 Z"
         id="path840" />
    </g>
  </g>
  <g
     style="display:none"
     id="layer2">
    <path
       id="broadsword"
       d="m -72.273777,-43.596441 c 2.231988,6.060783 3.90907,12.585468 4.754622,18.497889 0.589294,4.120554 0.819236,13.323859 1.012697,40.532308 l 0.144067,20.260587 1.452927,-7.33e-4 1.452935,-7.33e-4 -0.137564,0.691162 c -0.206196,1.035944 -1.65282,3.088928 -2.846641,4.039816 -0.611389,0.486951 -1.731732,1.060472 -2.659836,1.361549 -0.911112,0.295563 -1.696658,0.69535 -1.819187,0.925839 -0.324478,0.610354 -0.259916,1.698123 0.119618,2.015385 0.454073,0.37958 0.422682,0.730532 -0.128539,1.436291 l -0.464212,0.594384 0.463564,0.656083 c 0.573282,0.811359 0.575953,1.026742 0.02388,1.926147 -0.406564,0.662359 -0.413548,0.765529 -0.09354,1.381167 0.332467,0.639622 0.327604,0.940366 -0.04723,2.92301 -0.09597,0.507588 0.01616,0.875214 0.44749,1.467111 1.147999,1.575377 1.529001,2.669587 1.425899,4.095074 -0.07787,1.076645 -0.216073,1.44918 -0.743289,2.003518 -0.356179,0.37454 -1.019952,0.782131 -1.475015,0.905807 -0.601175,0.163368 -0.865759,0.37856 -0.967733,0.787023 -0.126038,0.504925 -0.254009,0.562238 -1.256499,0.562773 -1.010345,5.32e-4 -1.116139,-0.04788 -1.115895,-0.510781 2.19e-4,-0.408987 -0.221699,-0.590693 -1.108322,-0.907508 -2.452605,-0.876396 -2.91629,-3.506154 -1.100908,-6.243635 0.906744,-1.367313 1.062197,-2.181519 0.633581,-3.318571 -0.185984,-0.493392 -0.152183,-0.814703 0.15872,-1.5086 0.384976,-0.859227 0.38294,-0.902892 -0.07984,-1.71344 l -0.474885,-0.831742 0.479077,-0.843951 c 0.392169,-0.690858 0.429268,-0.913947 0.204571,-1.229789 -0.535073,-0.752073 -0.568066,-1.033531 -0.197384,-1.683782 0.765179,-1.342287 0.326118,-2.218883 -1.380868,-2.756909 -0.697425,-0.219821 -1.623376,-0.580923 -2.057663,-0.802444 -1.550897,-0.791071 -3.801971,-3.722318 -3.801352,-4.949806 2.18e-4,-0.415053 0.140385,-0.460555 1.420762,-0.461248 l 1.420521,-7.32e-4 0.16354,-23.872676 c 0.174189,-25.42845 0.367923,-32.993657 0.946655,-36.966343 0.528663,-3.628965 1.797447,-9.187121 2.9579,-12.957632 1.043572,-3.390722 2.72047,-8.133604 2.982557,-8.435751 0.08154,-0.09329 0.662075,1.226685 1.290824,2.933992 z m -1.509505,8.015591 c -4.36e-4,0.527686 -0.10349,4.362595 -0.228994,8.522027 -0.263068,8.717969 -0.832806,36.5577979 -1.06375,51.978476 l -0.158049,10.553693 1.736356,-9.25e-4 1.736363,-9.34e-4 -0.136005,-5.361377 c -0.07479,-2.948766 -0.232149,-10.846952 -0.349677,-17.551536 -0.302974,-17.2832501 -0.621989,-31.84774 -0.872679,-39.840772 -0.118721,-3.785254 -0.215575,-7.416882 -0.215223,-8.070283 3.64e-4,-0.65341 -0.100213,-1.187965 -0.223464,-1.187892 -0.123247,6.5e-5 -0.224448,0.431855 -0.224878,0.959532 z"
       style="fill:#800000;stroke-width:0.22491477" />
    <g
       id="mySword">
      <path
         id="broadsword-3"
         d="m 0.27773317,-43.140926 c -0.23889987,0.275395 -1.76647117,4.598547 -2.71767567,7.689179 -1.0577461,3.436799 -2.2140074,8.502496 -2.6958691,11.810293 -0.5275231,3.621066 -0.7054798,10.516532 -0.8642665,33.694422 L -6.1487473,31.812218 6.8449544,31.806333 6.7121453,13.337634 C 6.5358105,-11.462774 6.3275373,-19.849905 5.7903933,-23.605773 5.0196701,-28.994919 3.4896401,-34.944474 1.4551941,-40.468843 0.88208835,-42.025047 0.35264478,-43.225378 0.27773317,-43.140926 Z m -0.0713635,9.17389 c 0.0244577,-0.04441 0.0492024,-0.06938 0.0773057,-0.06937 0.11235592,-5.9e-5 0.20450415,0.488709 0.20417403,1.084295 -3.1721e-4,0.595565 0.0880275,3.905927 0.19624251,7.356157 0.22850966,7.28561 0.51873469,20.5594075 0.79488809,36.312989 0.1071314,6.111195 0.2509737,13.311019 0.3191436,15.998807 l 0.1248862,4.886264 -1.58382678,0.002 H -1.2426587 l 0.1447064,-9.619897 c 0.21050226,-14.055896 0.72954703,-39.431594 0.96932244,-47.377982 0.11440842,-3.791291 0.20772929,-7.287496 0.20813692,-7.768468 2.5405e-4,-0.360792 0.05347958,-0.671557 0.12686689,-0.804798 z"
         style="display:inline;fill:#ececec;stroke:#cccccc;stroke-width:1.43530822;stroke-miterlimit:4;stroke-dasharray:none" />
      <path
         id="path1323"
         d="m 0.20620028,-33.967868 c -0.0733873,0.133239 -0.12660854,0.444007 -0.12686689,0.804796 -4.1481e-4,0.480973 -0.09372563,3.977178 -0.20813692,7.768469 -0.23977828,7.946387 -0.75882305,33.3220834 -0.96932537,47.377953 l -0.1447049,9.619897 H 0.33900791 L 1.9228318,31.601247 1.7979457,26.71498 C 1.7297829,24.027184 1.5859478,16.82736 1.4788106,10.716167 1.2026587,-5.0373875 0.91243077,-18.311185 0.68392252,-25.596792 c -0.10822223,-3.450231 -0.19655684,-6.760593 -0.19624251,-7.35616 3.3156e-4,-0.595585 -0.0918167,-1.084358 -0.20417403,-1.084295 -0.0281033,-4e-6 -0.052848,0.02498 -0.0773057,0.06938 z"
         style="display:inline;fill:#cccccc;stroke:#cccccc;stroke-width:1.43530822;stroke-linecap:butt;stroke-linejoin:miter;stroke-miterlimit:4;stroke-dasharray:none;stroke-opacity:1" />
      <path
         id="path1692"
         d="m 3.9120585,38.583134 c 0.6517347,0.544814 0.6066789,1.048539 -0.1844931,2.06152 l -0.6662873,0.853124 0.6653572,0.941682 c 0.8228364,1.16455 0.8266701,1.473691 0.034275,2.764614 -0.5835447,0.95069 -0.5935688,1.09877 -0.1342587,1.982401 0.4771926,0.918054 0.4702127,1.349715 -0.06779,4.19542 -0.1377466,0.728545 -0.2331099,1.063972 0.3859816,1.913527 l -8.1236665,-0.04263 c 0.6371448,-1.288489 0.6625167,-2.273152 0.1869719,-3.534697 -0.2669444,-0.70817 -0.2184296,-1.16935 0.2278121,-2.165306 0.5525592,-1.233256 0.5496369,-1.295929 -0.114595,-2.459315 l -0.6816064,-1.193806 0.6876232,-1.21133 c 0.5628834,-0.991594 0.6161319,-1.311795 0.2936224,-1.765126 -0.7679947,-1.079456 -0.8153498,-1.483435 -0.2833069,-2.416746 2.5005681,-1.701268 5.0350999,-2.75722 7.7743599,0.07666 z"
         style="fill:#0044aa;stroke:#002255;stroke-width:1.43530822;stroke-miterlimit:4;stroke-dasharray:none" />
      <path
         id="path1669"
         d="m 6.8436483,31.804683 1.3243359,-6.68e-4 1.3243416,-6.67e-4 -0.1253885,0.62999 c -0.1879378,0.944259 -1.5065354,2.815542 -2.5946956,3.68227 -0.5572785,0.443855 -1.578463,0.966616 -2.4244251,1.241044 -3.52608296,0.881376 -6.6981399,0.559101 -9.6205193,-0.612098 -1.4136322,-0.72106 -3.4654885,-3.392859 -3.4649144,-4.511722 1.952e-4,-0.378315 0.1279721,-0.419784 1.2950198,-0.420419 l 1.2947987,-6.67e-4 z m -8.0864821,-0.201436 1.58268137,-8.45e-4 1.58268433,-8.51e-4 z"
         style="display:inline;fill:#003380;fill-opacity:1;stroke:#002255;stroke-width:1.43530822;stroke-miterlimit:4;stroke-dasharray:none;stroke-opacity:1" />
      <path
         style="fill:#003380;fill-opacity:1;stroke:#002255;stroke-width:1.43530822;stroke-miterlimit:4;stroke-dasharray:none;stroke-opacity:1"
         d="m 3.584069,53.020394 c 0.7908075,-0.01516 0.510598,0.322541 1.1296895,1.172096 0.8147412,1.171856 1.6819774,3.126842 1.5339943,5.172855 -0.1117675,1.545317 -0.3101314,2.08002 -1.0668488,2.875666 -0.5112267,0.53758 -1.4639455,1.122599 -2.1171012,1.300112 -0.8628714,0.234483 -1.242631,0.54335 -1.3889951,1.12962 -0.1809034,0.724723 -0.3645812,0.806985 -1.80346339,0.807753 -1.45015651,7.64e-4 -1.60200341,-0.06872 -1.60165321,-0.733128 3.143e-4,-0.587022 -0.3182064,-0.847827 -1.5907837,-1.302554 -3.5202441,-1.257898 -4.185775,-5.032411 -1.5801423,-8.96154 0.6624221,-0.998892 0.1393111,-1.331645 0.9996018,-1.405355 z"
         id="path1694" />
    </g>
  </g>
  <g
     style="display:none"
     id="layer9">
    <g
       id="background-cave">
      <path
         id="path539"
         d="M -4.0406102,69.695424 C 77.626442,57.569004 67.511863,68.011837 103.2881,67.170043 c 46.91054,1.959764 48.9589,25.331022 69.44798,39.901027 L 111.62185,-76.27162 H -7.5761441 L -68.437834,97.474619 c 18.38353,-9.413842 10.11436,-20.160319 64.3972238,-27.779195 z"
         style="fill:#000000;stroke:#6c5d53;stroke-width:1px;stroke-linecap:butt;stroke-linejoin:miter;stroke-opacity:1" />
      <path
         style="fill:#483737;stroke:#241c1c;stroke-width:1px;stroke-linecap:butt;stroke-linejoin:miter;stroke-opacity:1"
         d="M -4.0406102,69.695424 C 77.626442,57.569004 67.511863,68.011837 103.2881,67.170043 c 46.91054,1.959764 48.9589,25.331022 69.44798,39.901027 l -64.64976,79.29697 H -11.111678 L -68.437834,97.474619 c 18.38353,-9.413842 10.11436,-20.160319 64.3972238,-27.779195 z"
         id="path537" />
    </g>
  </g>
  <g
     style="display:none"
     id="layer8">
    <g
       id="orcBody-9"
       style="display:inline"
       transform="translate(-1.0593349e-7,-2.1049119e-6)">
      <path
         style="fill:#502d16;stroke:#502d16;stroke-width:1;stroke-linecap:butt;stroke-linejoin:miter;stroke-miterlimit:4;stroke-dasharray:none;stroke-opacity:1"
         d="m 41.895835,52.623639 5.082236,-15.724738 20.448776,2.583214 -7.519255,19.415769 z"
         id="path991-3" />
      <path
         style="fill:#918a6f;stroke:#484537;stroke-width:1;stroke-linecap:butt;stroke-linejoin:miter;stroke-miterlimit:4;stroke-dasharray:none;stroke-opacity:1"
         d="m 65.685446,56.337472 -4.153837,-1.978019 -3.758235,0.989013 -0.395604,18.791176 1.780217,4.351641 3.164827,-5.934057 z"
         id="path1033-1" />
      <path
         id="path1031-9"
         d="m 61.531609,54.359453 -4.153841,-1.978017 -3.758233,0.989012 -0.395604,18.791178 1.780216,4.351639 3.16483,-5.934056 z"
         style="fill:#918a6f;stroke:#484537;stroke-width:1;stroke-linecap:butt;stroke-linejoin:miter;stroke-miterlimit:4;stroke-dasharray:none;stroke-opacity:1" />
      <path
         style="fill:#784421;stroke:#502d16;stroke-width:1;stroke-linecap:butt;stroke-linejoin:miter;stroke-miterlimit:4;stroke-dasharray:none;stroke-opacity:1"
         d="m 41.478418,24.999601 6.963258,-6.532658 29.307256,8.43206 3.555235,10.509488 -11.779098,10.455094 -11.367898,-1.88761 -3.25663,-4.058235 -4.777039,1.616018 -10.677495,-6.625852 z"
         id="path989-4" />
      <path
         style="fill:#918a6f;stroke:#484537;stroke-width:1;stroke-linecap:butt;stroke-linejoin:miter;stroke-miterlimit:4;stroke-dasharray:none;stroke-opacity:1"
         d="m 43.333838,52.183633 -4.153839,-1.978018 -3.758234,0.989012 -0.395603,18.791177 1.780216,4.351639 3.164828,-5.934056 z"
         id="path1025-7" />
      <path
         id="path1027-8"
         d="m 49.07009,51.590227 -4.153838,-1.978019 -3.758234,0.989013 -0.395604,18.791176 1.780217,4.351641 3.164828,-5.934056 z"
         style="fill:#918a6f;stroke:#484537;stroke-width:1;stroke-linecap:butt;stroke-linejoin:miter;stroke-miterlimit:4;stroke-dasharray:none;stroke-opacity:1" />
      <path
         style="fill:#918a6f;stroke:#484537;stroke-width:1;stroke-linecap:butt;stroke-linejoin:miter;stroke-miterlimit:4;stroke-dasharray:none;stroke-opacity:1"
         d="m 55.597552,52.579238 -4.153839,-1.97802 -3.758234,0.989012 -0.395604,18.791177 1.780217,4.35164 3.164828,-5.934056 z"
         id="path1029-4" />
    </g>
    <g
       id="orcHead-5"
       style="display:inline"
       transform="translate(-1.0593349e-7,-2.1049119e-6)">
      <path
         style="fill:#217821;stroke:#165016;stroke-width:1;stroke-linecap:round;stroke-linejoin:round;stroke-miterlimit:4;stroke-dasharray:none;stroke-opacity:1"
         d="M 79.947116,15.08965 86.67238,23.792931 78.1669,21.617112 74.903169,18.650083 73.815259,14.00174 Z"
         id="path985-0" />
      <path
         style="fill:#217821;stroke:#165016;stroke-width:1;stroke-linecap:round;stroke-linejoin:round;stroke-miterlimit:4;stroke-dasharray:none;stroke-opacity:1"
         d="m 66.959077,7.9356372 -11.045646,-3.90088 3.356481,7.1982108 3.575332,1.247609 4.348787,-1.368763 z"
         id="path987-3" />
      <path
         id="path297"
         d="m 57.480002,21.697244 2.988128,-5.24849 11.245792,9.005183 -2.790307,4.454113 z"
         style="fill:#000000;stroke:#000000;stroke-width:1px;stroke-linecap:butt;stroke-linejoin:miter;stroke-opacity:1" />
      <path
         style="fill:#217821;stroke:#165016;stroke-width:1;stroke-linecap:round;stroke-linejoin:round;stroke-miterlimit:4;stroke-dasharray:none;stroke-opacity:1"
         d="m 60.468134,16.448756 6.154916,-7.5505352 6.556305,1.5012662 4.169433,5.833254 -5.634862,9.221198 z"
         id="path979-6" />
      <path
         style="fill:#ffeeaa;stroke:#d4aa00;stroke-width:1px;stroke-linecap:butt;stroke-linejoin:round;stroke-opacity:1"
         d="m 68.108354,29.530218 6.437609,-5.340348 c -0.556773,1.817372 -0.918859,3.546179 -4.02861,6.52499 z"
         id="path1051-1" />
      <path
         id="path1053-0"
         d="m 58.350033,21.962496 1.406073,-8.245307 c -1.295507,1.390861 -2.611655,2.568841 -3.636502,6.751372 z"
         style="fill:#ffeeaa;stroke:#d4aa00;stroke-width:1px;stroke-linecap:butt;stroke-linejoin:round;stroke-opacity:1" />
      <path
         style="fill:#008000;stroke:#165016;stroke-width:1px;stroke-linecap:butt;stroke-linejoin:round;stroke-opacity:1"
         d="m 69.443661,15.773804 0.03428,4.612583 -2.488674,1.406321 -2.287939,-1.466744 0.261604,-2.473417 z"
         id="path1055-6" />
      <path
         style="fill:#217821;stroke:#165016;stroke-width:1;stroke-linecap:round;stroke-linejoin:round;stroke-miterlimit:4;stroke-dasharray:none;stroke-opacity:1"
         d="m 55.023062,18.75023 -0.266907,10.352388 9.53988,6.421459 8.192672,-5.091239 z"
         id="path977-3" />
      <path
         style="fill:#000000;stroke:none;stroke-width:1;stroke-linecap:round;stroke-linejoin:round;stroke-miterlimit:4;stroke-dasharray:none;stroke-opacity:1"
         d="m 64.07357,8.810547 5.619346,5.299948 -2.998726,1.237909 -2.147417,-2.610223 z"
         id="path981-2" />
      <path
         id="path983-0"
         d="m 76.979795,17.001778 -6.189865,-1.85416 0.357446,2.690181 2.789142,0.463938 z"
         style="fill:#000000;stroke:none;stroke-width:1;stroke-linecap:round;stroke-linejoin:round;stroke-miterlimit:4;stroke-dasharray:none;stroke-opacity:1" />
    </g>
    <g
       id="orcBootR-6"
       style="display:inline"
       transform="translate(-1.0593349e-7,-2.1049119e-6)">
      <path
         style="fill:#552200;stroke:#2b1100;stroke-width:1;stroke-linecap:butt;stroke-linejoin:miter;stroke-miterlimit:4;stroke-dasharray:none;stroke-opacity:1"
         d="m 22.186085,91.13647 -1.744302,-9.566814 v 0 l 8.723936,-3.36147 v 0 l 2.812042,7.437698 1.685756,3.234335 -0.746854,4.090931 -8.471637,1.24607 z"
         id="path1041-1" />
      <path
         style="fill:#552200;stroke:#2b1100;stroke-width:1;stroke-linecap:butt;stroke-linejoin:miter;stroke-miterlimit:4;stroke-dasharray:none;stroke-opacity:1"
         d="m 21.122019,96.336295 -3.173098,-0.378449 -1.153723,-5.834246 3.896196,-2.272656 8.95615,-0.966337 2.58987,2.787298 -1.371235,4.053454 z"
         id="path1037-5" />
      <path
         id="path1039-5"
         d="m 27.148375,73.568452 3.193323,-0.120309 2.048203,5.583402 -3.494742,2.851679 -8.696399,2.349273 -2.992335,-2.349977 -0.28084,-5.502961 z"
         style="fill:#ff6600;stroke:#aa4400;stroke-width:1;stroke-linecap:butt;stroke-linejoin:miter;stroke-miterlimit:4;stroke-dasharray:none;stroke-opacity:1" />
    </g>
    <g
       id="orcShield-6"
       style="display:inline"
       transform="translate(-1.0593349e-7,-2.1049119e-6)">
      <ellipse
         transform="rotate(45)"
         style="opacity:1;vector-effect:none;fill:#ac9d93;fill-opacity:1;stroke:#6c5d53;stroke-width:1;stroke-linecap:round;stroke-linejoin:round;stroke-miterlimit:4;stroke-dasharray:none;stroke-dashoffset:0;stroke-opacity:1;paint-order:markers fill stroke"
         id="path1021-9"
         cx="103.89685"
         cy="-14.002121"
         rx="12.457746"
         ry="17.129702" />
      <path
         style="fill:#ac9d93;stroke:#6c5d53;stroke-width:1;stroke-linecap:butt;stroke-linejoin:miter;stroke-miterlimit:4;stroke-dasharray:none;stroke-opacity:1"
         d="m 88.254736,59.722174 c -4.937833,1.84235 -6.479644,4.816707 -7.848663,7.848663 l 6.483678,1.023739 c 3.007529,0.505056 4.749198,-0.255747 3.52621,-3.981206 z"
         id="path1049-3" />
    </g>
    <g
       id="orcBootL-4"
       style="display:inline"
       transform="translate(-1.0593349e-7,-2.1049119e-6)">
      <path
         id="path1043-7"
         d="m 76.744435,88.99834 -3.272796,-9.157255 v 0 l -9.235885,1.45085 v 0 l 1.283548,7.847256 0.15726,3.643895 2.692261,3.169422 7.959687,-3.156689 z"
         style="fill:#552200;stroke:#2b1100;stroke-width:1;stroke-linecap:butt;stroke-linejoin:miter;stroke-miterlimit:4;stroke-dasharray:none;stroke-opacity:1" />
      <path
         id="path1045-6"
         d="m 80.265856,92.969488 2.55876,-1.914295 -1.917971,-5.629468 -4.510532,-0.02008 -8.239422,3.641203 -0.849243,3.708806 3.214251,2.824776 z"
         style="fill:#552200;stroke:#2b1100;stroke-width:1;stroke-linecap:butt;stroke-linejoin:miter;stroke-miterlimit:4;stroke-dasharray:none;stroke-opacity:1" />
      <path
         style="fill:#ff6600;stroke:#aa4400;stroke-width:1;stroke-linecap:butt;stroke-linejoin:miter;stroke-miterlimit:4;stroke-dasharray:none;stroke-opacity:1"
         d="m 63.662958,76.265136 -2.825653,1.49247 1.017905,5.85947 4.452375,0.722255 8.705938,-2.313669 1.41645,-3.531308 -2.508266,-4.906123 z"
         id="path1047-5" />
    </g>
    <g
       id="orcSword-7"
       style="display:inline"
       transform="translate(-1.0593349e-7,-2.1049119e-6)">
      <rect
         transform="matrix(0.8660254,0.5,0.5,-0.8660254,0,0)"
         ry="8.3035698"
         rx="8.1403198"
         y="-34.949963"
         x="40.299603"
         height="14.107142"
         width="5.7142859"
         id="rect299"
         style="opacity:1;vector-effect:none;fill:#666666;fill-opacity:1;stroke:#000000;stroke-width:1;stroke-linecap:round;stroke-linejoin:round;stroke-miterlimit:4;stroke-dasharray:none;stroke-dashoffset:0;stroke-opacity:1;paint-order:markers fill stroke" />
      <circle
         style="opacity:1;vector-effect:none;fill:#666666;fill-opacity:1;stroke:#000000;stroke-width:1;stroke-linecap:round;stroke-linejoin:round;stroke-miterlimit:4;stroke-dasharray:none;stroke-dashoffset:0;stroke-opacity:1;paint-order:markers fill stroke"
         id="path1309-4"
         cx="44.65102"
         cy="16.381838"
         r="3.0304575"
         transform="matrix(0.25881905,0.96592583,0.96592583,-0.25881905,0,0)" />
      <path
         id="path1009-5"
         d="m 21.939256,18.821355 -5.175806,-0.985701 -1.793293,1.229167 -1.44306,0.695657 0.512841,4.111345 1.440434,2.2567 1.937024,1.175007 2.391144,-0.313366 2.751339,2.078915 2.107577,-4.175848 -0.240478,-2.95399 z"
         style="display:inline;fill:#217821;stroke:#165016;stroke-width:1;stroke-linecap:butt;stroke-linejoin:miter;stroke-miterlimit:4;stroke-dasharray:none;stroke-opacity:1" />
      <path
         id="path1011-2"
         d="m 23.71498,26.292609 0.106111,1.598464 -1.461585,2.962341 -3.793433,-0.123173 -0.802399,-1.142077 3.276547,-1.219501 0.0037,-2.282535"
         style="display:inline;fill:#217821;stroke:#165016;stroke-width:1;stroke-linecap:butt;stroke-linejoin:miter;stroke-miterlimit:4;stroke-dasharray:none;stroke-opacity:1" />
      <path
         style="display:inline;fill:#217821;stroke:#165016;stroke-width:1;stroke-linecap:butt;stroke-linejoin:miter;stroke-miterlimit:4;stroke-dasharray:none;stroke-opacity:1"
         d="m 14.970159,19.064819 -1.443059,0.695656 -1.856875,2.731979 1.977192,3.239756 1.389214,0.13514 -0.554193,-3.451931 0.693381,-0.33991"
         id="path1013-5" />
      <path
         id="path1015-4"
         d="m 15.299228,21.097045 -1.443059,0.695659 -1.856877,2.73198 1.977191,3.239754 1.389217,0.13514 -0.554194,-3.451932 1.908624,-1.067858"
         style="display:inline;fill:#217821;stroke:#165016;stroke-width:1;stroke-linecap:butt;stroke-linejoin:miter;stroke-miterlimit:4;stroke-dasharray:none;stroke-opacity:1" />
      <path
         style="display:inline;fill:#217821;stroke:#165016;stroke-width:1;stroke-linecap:butt;stroke-linejoin:miter;stroke-miterlimit:4;stroke-dasharray:none;stroke-opacity:1"
         d="m 16.254567,23.751973 -1.443059,0.695659 -1.856877,2.73198 1.977193,3.239759 1.389219,0.135127 -0.554198,-3.451934 1.984079,-1.128465"
         id="path1017-7" />
      <path
         id="path1019-4"
         d="m 18.312186,24.768041 -1.443058,0.695658 -1.856877,2.731977 1.977193,3.239757 1.389217,0.135128 -0.554193,-3.451932 1.984076,-1.128464"
         style="display:inline;fill:#217821;stroke:#165016;stroke-width:1;stroke-linecap:butt;stroke-linejoin:miter;stroke-miterlimit:4;stroke-dasharray:none;stroke-opacity:1" />
      <path
         id="path1311-4"
         d="m 23.285076,55.254535 0.798836,0.461744 0.798839,0.461747 0.143804,-0.423799 c 0.215544,-0.635209 0.07181,-2.223633 -0.282821,-3.12566 -0.181628,-0.461942 -0.615674,-1.133098 -1.030505,-1.593378 -1.820507,-1.760135 -3.846706,-2.670692 -6.017985,-2.982055 -1.104132,-0.05738 -3.272906,0.839931 -3.662324,1.515221 -0.131672,0.228333 -0.06902,0.297867 0.634923,0.704799 l 0.781013,0.451454 z m -4.949332,-2.695444 0.954652,0.551849 0.954652,0.551853 z"
         style="display:inline;fill:#666666;stroke:#000000;stroke-width:1;stroke-miterlimit:4;stroke-dasharray:none" />
      <path
         id="path1647-3"
         d="m -20.116734,89.057483 c 0.08767,-0.110693 1.218734,-0.913248 2.513333,-1.783545 4.241705,-2.851501 6.094569,-5.570572 5.120199,-7.513865 l -0.377397,-0.752679 2.778881,-0.662802 c 9.08474678,-2.166833 11.01177862,-6.184946 16.6832778,-12.499715 2.7033347,-3.009954 3.7979422,-4.602864 6.6717682,-9.70898 0.970247,-1.723894 2.005032,-3.440474 2.29965,-3.814547 0.42959,-0.545493 0.566067,-0.872057 0.22328,-1.422081 l 6.71744,3.905013 -0.358611,1.918811 c -0.22376,1.197262 -1.325617,5.634552 -1.565846,5.93754 -0.02734,0.03436 -0.366887,-0.188682 -0.754698,-0.495735 -0.610946,-0.483666 -0.77766,-0.485817 -1.24829,-0.01577 -0.383724,0.383254 -0.522134,0.906764 -0.471418,1.783375 0.122603,2.119882 -1.140513,4.401079 -5.436405,9.818178 -4.7145919,5.94534 -6.6814808,7.671887 -12.10922068,10.630772 -5.57047962,3.036701 -14.11061132,5.23449 -19.27547132,4.960515 -0.863493,-0.04581 -1.498203,-0.173818 -1.410469,-0.284473 z"
         style="display:inline;fill:#483e37;stroke-width:0.27505341" />
      <path
         id="path1664-0"
         d="m -20.053732,89.14178 c -0.06063,-0.02831 -0.08599,-0.0567 -0.06406,-0.08435 0.08767,-0.110693 1.21877,-0.912675 2.513369,-1.78297 1.075296,-0.722872 1.994614,-1.437069 2.755729,-2.132438 C 9.5688147,81.48624 12.712296,66.323613 21.497349,54.212263 l 1.016306,0.591267 -0.359336,1.919262 c -0.22376,1.197261 -1.325517,5.635529 -1.565748,5.938516 -0.02734,0.03436 -0.365585,-0.188807 -0.753397,-0.49586 -0.610945,-0.483666 -0.77789,-0.487233 -1.248518,-0.01719 -0.383725,0.383255 -0.521815,0.90821 -0.471144,1.784796 0.122602,2.119881 -1.141931,4.399924 -5.437824,9.817022 -4.7145925,5.945342 -6.6804026,7.673191 -12.10814378,10.632076 -5.57047942,3.036701 -14.11066022,5.234376 -19.27552022,4.960401 -0.64762,-0.03436 -1.165779,-0.115944 -1.347755,-0.200778 z"
         style="display:inline;fill:#6c5353;stroke-width:0.27505341" />
    </g>
    <path
       id="fatalWound"
       d="m 69.115008,43.2503 c -3.354893,-2.046584 -7.28417,-3.805977 -8.081939,-7.131122 -5.005887,-1.808785 -10.026295,-3.61097 -10.221275,-7.606531 -7.22363,-1.865581 -12.205803,-4.953773 -14.499949,-9.508163 -6.020582,0.629488 -10.995354,-2.401359 -16.163877,-4.754081 4.222797,3.565561 11.239458,7.131123 11.885204,10.696683 5.549498,-0.0226 9.518475,3.431946 12.836019,8.319643 2.097601,-1.03429 5.897462,1.335943 10.221277,4.754081 3.556287,-0.121107 9.276405,3.36418 14.02454,5.22949 z"
       style="display:inline;fill:#ff0000;stroke:#800000;stroke-width:1.33114278px;stroke-linecap:butt;stroke-linejoin:miter;stroke-opacity:1" />
  </g>
  <g
     style="display:none"
     id="layer6">
    <g
       id="orcBody">
      <path
         style="fill:#502d16;stroke:#502d16;stroke-width:1;stroke-linecap:butt;stroke-linejoin:miter;stroke-miterlimit:4;stroke-dasharray:none;stroke-opacity:1"
         d="m 40.281227,50.167091 0.839202,-16.50431 20.420586,-2.79734 -2.237872,20.700319 z"
         id="path991" />
      <path
         style="fill:#918a6f;stroke:#484537;stroke-width:1;stroke-linecap:butt;stroke-linejoin:miter;stroke-miterlimit:4;stroke-dasharray:none;stroke-opacity:1"
         d="m 65.42394,53.046777 -4.153839,-1.978019 -3.758235,0.98901 -0.395604,18.791176 1.780217,4.35164 3.164828,-5.934056 z"
         id="path1033" />
      <path
         id="path1031"
         d="m 61.270101,51.068758 -4.153839,-1.978018 -3.758235,0.989009 -0.395604,18.791177 1.780217,4.35164 3.164829,-5.934056 z"
         style="fill:#918a6f;stroke:#484537;stroke-width:1;stroke-linecap:butt;stroke-linejoin:miter;stroke-miterlimit:4;stroke-dasharray:none;stroke-opacity:1" />
      <path
         style="fill:#784421;stroke:#502d16;stroke-width:1;stroke-linecap:butt;stroke-linejoin:miter;stroke-miterlimit:4;stroke-dasharray:none;stroke-opacity:1"
         d="m 32.728407,23.592355 5.035214,-8.112288 30.491013,0.559469 6.154149,9.231223 -8.671757,13.147501 -11.469096,1.118937 -4.196011,-3.077076 -4.19601,2.797342 -12.028565,-3.636543 z"
         id="path989" />
      <path
         style="fill:#918a6f;stroke:#484537;stroke-width:1;stroke-linecap:butt;stroke-linejoin:miter;stroke-miterlimit:4;stroke-dasharray:none;stroke-opacity:1"
         d="m 43.072331,48.892938 -4.153839,-1.978018 -3.758235,0.989009 -0.395604,18.791176 1.780217,4.35164 3.164829,-5.934056 z"
         id="path1025" />
      <path
         id="path1027"
         d="m 48.808584,48.299532 -4.153839,-1.978018 -3.758235,0.989009 -0.395604,18.791177 1.780217,4.35164 3.164829,-5.934056 z"
         style="fill:#918a6f;stroke:#484537;stroke-width:1;stroke-linecap:butt;stroke-linejoin:miter;stroke-miterlimit:4;stroke-dasharray:none;stroke-opacity:1" />
      <path
         style="fill:#918a6f;stroke:#484537;stroke-width:1;stroke-linecap:butt;stroke-linejoin:miter;stroke-miterlimit:4;stroke-dasharray:none;stroke-opacity:1"
         d="m 55.336045,49.288542 -4.153839,-1.978019 -3.758235,0.989009 -0.395604,18.791177 1.780217,4.35164 3.164829,-5.934056 z"
         id="path1029" />
    </g>
    <g
       id="orcHead">
      <path
         style="fill:#217821;stroke:#165016;stroke-width:1;stroke-linecap:round;stroke-linejoin:round;stroke-miterlimit:4;stroke-dasharray:none;stroke-opacity:1"
         d="m 57.740695,14.645103 8.703281,-6.7252622 -2.17582,8.5054792 -2.967029,3.263731 -4.648343,1.08791 z"
         id="path985" />
      <path
         style="fill:#217821;stroke:#165016;stroke-width:1;stroke-linecap:round;stroke-linejoin:round;stroke-miterlimit:4;stroke-dasharray:none;stroke-opacity:1"
         d="m 48.641809,14.941807 -7.615371,-8.9010843 -0.692307,7.9120743 2.472524,2.868127 4.450541,0.989009 z"
         id="path987" />
      <path
         style="fill:#217821;stroke:#165016;stroke-width:1;stroke-linecap:round;stroke-linejoin:round;stroke-miterlimit:4;stroke-dasharray:none;stroke-opacity:1"
         d="m 44.662804,25.017702 1.681315,-10.879104 6.42856,-1.978018 6.527462,2.967029 -0.395604,12.065914 z"
         id="path979" />
      <path
         style="fill:#ffeeaa;stroke:#d4aa00;stroke-width:1px;stroke-linecap:butt;stroke-linejoin:round;stroke-opacity:1"
         d="m 57.946428,26.339286 2.904959,-7.843682 c 0.426511,1.852275 0.977339,3.530509 -0.226383,7.665111 z"
         id="path1051" />
      <path
         id="path1053"
         d="m 45.711614,24.664606 -2.904959,-7.843682 c -0.426511,1.852275 -0.977339,3.530509 0.226383,7.665111 z"
         style="fill:#ffeeaa;stroke:#d4aa00;stroke-width:1px;stroke-linecap:butt;stroke-linejoin:round;stroke-opacity:1" />
      <path
         style="fill:#008000;stroke:#165016;stroke-width:1px;stroke-linecap:butt;stroke-linejoin:round;stroke-opacity:1"
         d="m 52.224631,18.682721 2.335978,3.977475 -1.452094,2.462247 -2.714785,-0.126269 -1.010153,-2.272843 z"
         id="path1055" />
      <path
         style="fill:#217821;stroke:#165016;stroke-width:1;stroke-linecap:round;stroke-linejoin:round;stroke-miterlimit:4;stroke-dasharray:none;stroke-opacity:1"
         d="m 41.224239,23.546187 4.945047,9.098885 11.472507,0.791207 4.549443,-8.505479 z"
         id="path977" />
      <path
         style="fill:#ff0000;stroke:#800000;stroke-width:1;stroke-linecap:round;stroke-linejoin:round;stroke-miterlimit:4;stroke-dasharray:none;stroke-opacity:1"
         d="m 44.092368,15.33741 7.51647,1.780216 -1.978019,2.571424 -3.164829,-1.186811 z"
         id="path981" />
      <path
         id="path983"
         d="m 59.365102,15.978111 -6.287661,1.489183 1.654648,2.151042 2.647437,-0.992789 z"
         style="fill:#ff0000;stroke:#800000;stroke-width:1;stroke-linecap:round;stroke-linejoin:round;stroke-miterlimit:4;stroke-dasharray:none;stroke-opacity:1" />
    </g>
    <g
       id="orcBootR">
      <path
         style="fill:#552200;stroke:#2b1100;stroke-width:1;stroke-linecap:butt;stroke-linejoin:miter;stroke-miterlimit:4;stroke-dasharray:none;stroke-opacity:1"
         d="m 26.061371,90.431327 0.791208,-9.692291 v 0 l 9.296687,-0.989009 v 0 l 0.791207,7.912074 0.791207,3.560433 -1.780216,3.758236 -8.50548,-0.98901 z"
         id="path1041" />
      <path
         style="fill:#552200;stroke:#2b1100;stroke-width:1;stroke-linecap:butt;stroke-linejoin:miter;stroke-miterlimit:4;stroke-dasharray:none;stroke-opacity:1"
         d="m 23.687749,95.178572 -2.967028,-1.186812 0.395604,-5.934055 4.351641,-1.186811 8.901083,1.384613 1.780217,3.362631 -2.373623,3.560434 z"
         id="path1037" />
      <path
         id="path1039"
         d="m 35.401513,74.74626 3.115651,0.710284 0.533322,5.923265 -4.113731,1.850005 -9.008113,0.01843 -2.282154,-3.044377 1.153,-5.388139 z"
         style="fill:#ff6600;stroke:#aa4400;stroke-width:1;stroke-linecap:butt;stroke-linejoin:miter;stroke-miterlimit:4;stroke-dasharray:none;stroke-opacity:1" />
    </g>
    <g
       id="orcBootL">
      <path
         id="path1043"
         d="m 75.459354,90.175367 -0.791207,-9.692291 v 0 L 65.37146,79.494067 v 0 l -0.791207,7.912074 -0.791208,3.560434 1.780217,3.758235 8.505479,-0.989009 z"
         style="fill:#552200;stroke:#2b1100;stroke-width:1;stroke-linecap:butt;stroke-linejoin:miter;stroke-miterlimit:4;stroke-dasharray:none;stroke-opacity:1" />
      <path
         id="path1045"
         d="m 77.832976,94.922612 2.967029,-1.186811 -0.395604,-5.934056 -4.351642,-1.18681 -8.901083,1.384613 -1.780216,3.362631 2.373623,3.560433 z"
         style="fill:#552200;stroke:#2b1100;stroke-width:1;stroke-linecap:butt;stroke-linejoin:miter;stroke-miterlimit:4;stroke-dasharray:none;stroke-opacity:1" />
      <path
         style="fill:#ff6600;stroke:#aa4400;stroke-width:1;stroke-linecap:butt;stroke-linejoin:miter;stroke-miterlimit:4;stroke-dasharray:none;stroke-opacity:1"
         d="m 66.119213,74.490301 -3.115651,0.710283 -0.533322,5.923266 4.113731,1.850004 9.008112,0.01843 2.282155,-3.044377 -1.153001,-5.388138 z"
         id="path1047" />
    </g>
    <g
       id="orcShield">
      <ellipse
         style="opacity:1;vector-effect:none;fill:#ac9d93;fill-opacity:1;stroke:#6c5d53;stroke-width:1;stroke-linecap:round;stroke-linejoin:round;stroke-miterlimit:4;stroke-dasharray:none;stroke-dashoffset:0;stroke-opacity:1;paint-order:markers fill stroke"
         id="path1021"
         cx="79.617165"
         cy="46.243748"
         rx="12.457746"
         ry="17.129702" />
      <path
         style="fill:#ac9d93;stroke:#6c5d53;stroke-width:1;stroke-linecap:butt;stroke-linejoin:miter;stroke-miterlimit:4;stroke-dasharray:none;stroke-opacity:1"
         d="m 80.355787,40.0703 c -2.188837,4.794314 -1.175874,7.987727 0,11.099686 l 5.308545,-3.86076 c 2.483773,-1.769516 3.17735,-3.53903 -0.32173,-5.308545 z"
         id="path1049" />
    </g>
    <g
       id="orcSword">
      <circle
         style="opacity:1;vector-effect:none;fill:#666666;fill-opacity:1;stroke:#000000;stroke-width:1;stroke-linecap:round;stroke-linejoin:round;stroke-miterlimit:4;stroke-dasharray:none;stroke-dashoffset:0;stroke-opacity:1;paint-order:markers fill stroke"
         id="path1309"
         cx="-23.07246"
         cy="23.591419"
         r="3.0304575"
         transform="rotate(-45)" />
      <path
         id="path1009"
         d="m -6.814161,27.917846 3.989529,3.441545 2.16761897,-0.167845 1.59755501,0.119073 L 2.552082,27.49367 2.432979,24.819095 1.342972,22.832996 -0.88450203,21.908807 -2.227774,18.732745 l -3.91314,2.562601 -1.2687345,2.678469 z"
         style="display:inline;fill:#217821;stroke:#165016;stroke-width:1;stroke-linecap:butt;stroke-linejoin:miter;stroke-miterlimit:4;stroke-dasharray:none;stroke-opacity:1" />
      <path
         id="path1011"
         d="m -4.616356,20.559688 0.707336,-1.437367 2.746941,-1.834669 3.223623,2.003387 0.12386,1.390267 -3.447324,-0.582155 -1.144514,1.974859"
         style="display:inline;fill:#217821;stroke:#165016;stroke-width:1;stroke-linecap:butt;stroke-linejoin:miter;stroke-miterlimit:4;stroke-dasharray:none;stroke-opacity:1" />
      <path
         style="display:inline;fill:#217821;stroke:#165016;stroke-width:1;stroke-linecap:butt;stroke-linejoin:miter;stroke-miterlimit:4;stroke-dasharray:none;stroke-opacity:1"
         d="M -0.65701503,31.191548 0.94053898,31.310621 3.914629,29.873095 3.822209,26.078789 2.686684,25.267147 1.440663,28.533704 0.67022298,28.481384"
         id="path1013" />
      <path
         id="path1015"
         d="M 0.07411598,29.267053 1.671671,29.386124 4.645763,27.948599 4.553343,24.154294 3.417816,23.342651 2.171796,26.60921 -0.01504902,26.57969"
         style="display:inline;fill:#217821;stroke:#165016;stroke-width:1;stroke-linecap:butt;stroke-linejoin:miter;stroke-miterlimit:4;stroke-dasharray:none;stroke-opacity:1" />
      <path
         style="display:inline;fill:#217821;stroke:#165016;stroke-width:1;stroke-linecap:butt;stroke-linejoin:miter;stroke-miterlimit:4;stroke-dasharray:none;stroke-opacity:1"
         d="M 0.57423298,26.490149 2.171788,26.60922 5.14588,25.171694 5.05346,21.377384 3.917926,20.565752 2.671907,23.832313 0.38941298,23.817553"
         id="path1017" />
      <path
         id="path1019"
         d="M -0.69968303,24.581399 0.89787098,24.700471 3.871961,23.262947 3.779541,19.468639 2.644007,18.657006 1.397986,21.923565 -0.88450603,21.908805"
         style="display:inline;fill:#217821;stroke:#165016;stroke-width:1;stroke-linecap:butt;stroke-linejoin:miter;stroke-miterlimit:4;stroke-dasharray:none;stroke-opacity:1" />
      <path
         id="path1311"
         d="m 5.002949,16.776385 0.922684,-4.65e-4 0.922688,-4.65e-4 -0.08736,0.438923 c -0.130939,0.657879 -1.049625,1.961629 -1.807762,2.565491 -0.388264,0.30924 -1.099738,0.673455 -1.689132,0.864653 -2.45667302,0.614068 -4.666691,0.389534 -6.702755,-0.426457 -0.984898,-0.502373 -2.414456,-2.363854 -2.414056,-3.143382 1.36e-4,-0.263578 0.08916,-0.29247 0.902259,-0.292912 l 0.902105,-4.65e-4 z M -0.63102003,16.636042 0.47165698,16.635453 1.574336,16.63486 Z"
         style="display:inline;fill:#666666;stroke:#000000;stroke-width:1;stroke-miterlimit:4;stroke-dasharray:none" />
      <path
         id="path1647"
         d="m -15.682648,-34.198731 c 0.02058,0.139696 0.598831,1.400263 1.284838,2.801261 2.247674,4.590325 2.492766,7.871541 0.677291,9.067297 l -0.703175,0.463141 2.075182,1.963442 c 6.7842043,6.418906 6.4440056,10.8622098 8.1982834,19.16670961 0.8361803,3.95836469 0.9876831,5.88516849 0.923432,11.74410739 -0.021694,1.97806 0.016171,3.982054 0.084278,4.45332 0.099294,0.687206 0.054204,1.038258 -0.5176737,1.343199 l 7.7699802,-0.02312 0.6488388,-1.841045 C 5.1634755,13.790842 6.4278853,9.3971082 6.3713334,9.0145977 6.3648208,8.9711767 5.95926,8.9945576 5.4698789,9.0665704 4.6989517,9.1799635 4.5534973,9.0984695 4.3809429,8.4560834 4.2402552,7.9323128 4.3821925,7.4097358 4.8643698,6.6759264 6.0304877,4.9013562 6.0771966,2.2942238 5.0653935,-4.5450672 3.9551074,-12.05118 3.1150063,-14.529857 -0.10611217,-19.806197 -3.4119391,-25.221297 -9.7090157,-31.394704 -14.318903,-33.739864 c -0.770711,-0.392076 -1.384391,-0.598571 -1.363739,-0.458874 z"
         style="display:inline;fill:#483e37;stroke-width:0.27505341" />
      <path
         id="path1664"
         d="m -15.585938,-34.240234 c -0.06667,-0.0058 -0.102819,0.0061 -0.09766,0.04102 0.02058,0.139696 0.599149,1.399784 1.285156,2.800781 0.569799,1.163674 1.008852,2.241845 1.320313,3.22461 C 6.2401693,-12.799068 1.3811899,1.9038932 2.9335938,16.785156 L 4.109375,16.78125 4.7578125,14.939453 C 5.1626613,13.790714 6.4276456,9.3961824 6.3710938,9.0136719 6.3645812,8.9702509 5.9600842,8.9943935 5.4707031,9.0664062 4.6997759,9.1797993 4.5534138,9.0994173 4.3808594,8.4570312 4.2401717,7.9332606 4.3830571,7.4095907 4.8652344,6.6757812 6.0313523,4.9012111 6.0762562,2.2943691 5.0644531,-4.5449219 3.954167,-12.051035 3.1156497,-14.530301 -0.10546875,-19.806641 -3.4112957,-25.221741 -9.7084721,-31.395074 -14.318359,-33.740234 c -0.578034,-0.294057 -1.067566,-0.48248 -1.267579,-0.5 z"
         style="display:inline;fill:#6c5353;stroke-width:0.27505341" />
    </g>
  </g>
  <g
     style="display:none"
     id="layer10">
    <g
       id="orc-won">
      <g
         transform="translate(-1.0593349e-7,-2.1049119e-6)"
         style="display:inline"
         id="orcBody-7">
        <path
           id="path991-8"
           d="m 40.281227,50.167091 0.839202,-16.50431 20.420586,-2.79734 -2.237872,20.700319 z"
           style="fill:#502d16;stroke:#502d16;stroke-width:1;stroke-linecap:butt;stroke-linejoin:miter;stroke-miterlimit:4;stroke-dasharray:none;stroke-opacity:1" />
        <path
           id="path1033-6"
           d="m 65.42394,53.046777 -4.153839,-1.978019 -3.758235,0.98901 -0.395604,18.791176 1.780217,4.35164 3.164828,-5.934056 z"
           style="fill:#918a6f;stroke:#484537;stroke-width:1;stroke-linecap:butt;stroke-linejoin:miter;stroke-miterlimit:4;stroke-dasharray:none;stroke-opacity:1" />
        <path
           style="fill:#918a6f;stroke:#484537;stroke-width:1;stroke-linecap:butt;stroke-linejoin:miter;stroke-miterlimit:4;stroke-dasharray:none;stroke-opacity:1"
           d="m 61.270101,51.068758 -4.153839,-1.978018 -3.758235,0.989009 -0.395604,18.791177 1.780217,4.35164 3.164829,-5.934056 z"
           id="path1031-8" />
        <path
           id="path989-8"
           d="m 32.728407,23.592355 5.035214,-8.112288 30.491013,0.559469 6.154149,9.231223 -8.671757,13.147501 -11.469096,1.118937 -4.196011,-3.077076 -4.19601,2.797342 -12.028565,-3.636543 z"
           style="fill:#784421;stroke:#502d16;stroke-width:1;stroke-linecap:butt;stroke-linejoin:miter;stroke-miterlimit:4;stroke-dasharray:none;stroke-opacity:1" />
        <path
           id="path1025-4"
           d="m 43.072331,48.892938 -4.153839,-1.978018 -3.758235,0.989009 -0.395604,18.791176 1.780217,4.35164 3.164829,-5.934056 z"
           style="fill:#918a6f;stroke:#484537;stroke-width:1;stroke-linecap:butt;stroke-linejoin:miter;stroke-miterlimit:4;stroke-dasharray:none;stroke-opacity:1" />
        <path
           style="fill:#918a6f;stroke:#484537;stroke-width:1;stroke-linecap:butt;stroke-linejoin:miter;stroke-miterlimit:4;stroke-dasharray:none;stroke-opacity:1"
           d="m 48.808584,48.299532 -4.153839,-1.978018 -3.758235,0.989009 -0.395604,18.791177 1.780217,4.35164 3.164829,-5.934056 z"
           id="path1027-3" />
        <path
           id="path1029-1"
           d="m 55.336045,49.288542 -4.153839,-1.978019 -3.758235,0.989009 -0.395604,18.791177 1.780217,4.35164 3.164829,-5.934056 z"
           style="fill:#918a6f;stroke:#484537;stroke-width:1;stroke-linecap:butt;stroke-linejoin:miter;stroke-miterlimit:4;stroke-dasharray:none;stroke-opacity:1" />
      </g>
      <g
         transform="translate(-1.0593349e-7,-2.1049119e-6)"
         style="display:inline"
         id="orcBootR-4">
        <path
           id="path1041-9"
           d="m 26.061371,90.431327 0.791208,-9.692291 v 0 l 9.296687,-0.989009 v 0 l 0.791207,7.912074 0.791207,3.560433 -1.780216,3.758236 -8.50548,-0.98901 z"
           style="fill:#552200;stroke:#2b1100;stroke-width:1;stroke-linecap:butt;stroke-linejoin:miter;stroke-miterlimit:4;stroke-dasharray:none;stroke-opacity:1" />
        <path
           id="path1037-50"
           d="m 23.687749,95.178572 -2.967028,-1.186812 0.395604,-5.934055 4.351641,-1.186811 8.901083,1.384613 1.780217,3.362631 -2.373623,3.560434 z"
           style="fill:#552200;stroke:#2b1100;stroke-width:1;stroke-linecap:butt;stroke-linejoin:miter;stroke-miterlimit:4;stroke-dasharray:none;stroke-opacity:1" />
        <path
           style="fill:#ff6600;stroke:#aa4400;stroke-width:1;stroke-linecap:butt;stroke-linejoin:miter;stroke-miterlimit:4;stroke-dasharray:none;stroke-opacity:1"
           d="m 35.401513,74.74626 3.115651,0.710284 0.533322,5.923265 -4.113731,1.850005 -9.008113,0.01843 -2.282154,-3.044377 1.153,-5.388139 z"
           id="path1039-4" />
      </g>
      <g
         transform="translate(-1.0593349e-7,-2.1049119e-6)"
         style="display:inline"
         id="orcBootL-8">
        <path
           style="fill:#552200;stroke:#2b1100;stroke-width:1;stroke-linecap:butt;stroke-linejoin:miter;stroke-miterlimit:4;stroke-dasharray:none;stroke-opacity:1"
           d="m 75.459354,90.175367 -0.791207,-9.692291 v 0 L 65.37146,79.494067 v 0 l -0.791207,7.912074 -0.791208,3.560434 1.780217,3.758235 8.505479,-0.989009 z"
           id="path1043-71" />
        <path
           style="fill:#552200;stroke:#2b1100;stroke-width:1;stroke-linecap:butt;stroke-linejoin:miter;stroke-miterlimit:4;stroke-dasharray:none;stroke-opacity:1"
           d="m 77.832976,94.922612 2.967029,-1.186811 -0.395604,-5.934056 -4.351642,-1.18681 -8.901083,1.384613 -1.780216,3.362631 2.373623,3.560433 z"
           id="path1045-7" />
        <path
           id="path1047-2"
           d="m 66.119213,74.490301 -3.115651,0.710283 -0.533322,5.923266 4.113731,1.850004 9.008112,0.01843 2.282155,-3.044377 -1.153001,-5.388138 z"
           style="fill:#ff6600;stroke:#aa4400;stroke-width:1;stroke-linecap:butt;stroke-linejoin:miter;stroke-miterlimit:4;stroke-dasharray:none;stroke-opacity:1" />
      </g>
      <g
         transform="rotate(-30,46.974538,26.782897)"
         style="display:inline"
         id="orcShield-7">
        <ellipse
           ry="17.129702"
           rx="12.457746"
           cy="46.243748"
           cx="79.617165"
           id="path1021-2"
           style="opacity:1;vector-effect:none;fill:#ac9d93;fill-opacity:1;stroke:#6c5d53;stroke-width:1;stroke-linecap:round;stroke-linejoin:round;stroke-miterlimit:4;stroke-dasharray:none;stroke-dashoffset:0;stroke-opacity:1;paint-order:markers fill stroke" />
        <path
           id="path1049-2"
           d="m 80.355787,40.0703 c -2.188837,4.794314 -1.175874,7.987727 0,11.099686 l 5.308545,-3.86076 c 2.483773,-1.769516 3.17735,-3.53903 -0.32173,-5.308545 z"
           style="fill:#ac9d93;stroke:#6c5d53;stroke-width:1;stroke-linecap:butt;stroke-linejoin:miter;stroke-miterlimit:4;stroke-dasharray:none;stroke-opacity:1" />
      </g>
      <g
         transform="translate(-1.0593349e-7,-2.1049119e-6)"
         style="display:inline"
         id="orcSword-6">
        <circle
           transform="rotate(-18.684644)"
           r="3.0304575"
           cy="30.661755"
           cx="4.4743209"
           id="path1309-1"
           style="opacity:1;vector-effect:none;fill:#666666;fill-opacity:1;stroke:#000000;stroke-width:1;stroke-linecap:round;stroke-linejoin:round;stroke-miterlimit:4;stroke-dasharray:none;stroke-dashoffset:0;stroke-opacity:1;paint-order:markers fill stroke" />
        <path
           style="display:inline;fill:#217821;stroke:#165016;stroke-width:1;stroke-linecap:butt;stroke-linejoin:miter;stroke-miterlimit:4;stroke-dasharray:none;stroke-opacity:1"
           d="m 9.8757122,19.8767 2.0504088,4.853493 2.017391,0.810479 1.37921,0.814948 3.13663,-2.706976 1.078909,-2.450201 -0.09659,-2.263489 -1.586933,-1.815876 0.20392,-3.442408 -4.643643,0.562292 -2.324649,1.83845 z"
           id="path1009-0" />
        <path
           style="display:inline;fill:#217821;stroke:#165016;stroke-width:1;stroke-linecap:butt;stroke-linejoin:miter;stroke-miterlimit:4;stroke-dasharray:none;stroke-opacity:1"
           d="m 15.107709,14.255397 1.271235,-0.97484 3.275598,-0.426786 2.001427,3.224839 -0.505297,1.3011 -2.831994,-2.050063 -1.901383,1.262823"
           id="path1011-6" />
        <path
           id="path1013-1"
           d="m 13.943509,25.540674 1.37921,0.814946 3.303149,0.0299 1.599217,-3.442063 -0.658038,-1.230921 -2.564995,2.37566 -0.667403,-0.388443"
           style="display:inline;fill:#217821;stroke:#165016;stroke-width:1;stroke-linecap:butt;stroke-linejoin:miter;stroke-miterlimit:4;stroke-dasharray:none;stroke-opacity:1" />
        <path
           style="display:inline;fill:#217821;stroke:#165016;stroke-width:1;stroke-linecap:butt;stroke-linejoin:miter;stroke-miterlimit:4;stroke-dasharray:none;stroke-opacity:1"
           d="m 15.452022,24.139738 1.379211,0.814945 3.303151,0.0299 1.599217,-3.442064 -0.658039,-1.230922 -2.564995,2.375663 -1.947131,-0.995914"
           id="path1015-5" />
        <path
           id="path1017-9"
           d="m 17.131344,21.872317 1.379211,0.814946 3.303151,0.0299 1.599219,-3.442068 -0.65805,-1.230916 -2.564995,2.375665 -2.03941,-1.025086"
           style="display:inline;fill:#217821;stroke:#165016;stroke-width:1;stroke-linecap:butt;stroke-linejoin:miter;stroke-miterlimit:4;stroke-dasharray:none;stroke-opacity:1" />
        <path
           style="display:inline;fill:#217821;stroke:#165016;stroke-width:1;stroke-linecap:butt;stroke-linejoin:miter;stroke-miterlimit:4;stroke-dasharray:none;stroke-opacity:1"
           d="m 16.835617,19.596635 1.37921,0.814945 3.303149,0.0299 1.599218,-3.442064 -0.65805,-1.230918 -2.564996,2.375663 -2.039409,-1.025085"
           id="path1019-49" />
        <path
           style="display:inline;fill:#666666;stroke:#000000;stroke-width:1;stroke-miterlimit:4;stroke-dasharray:none"
           d="m 25.407324,15.128515 0.82727,0.408619 0.827275,0.408621 -0.272887,0.35471 c -0.409014,0.531653 -1.810463,1.29303 -2.757731,1.49822 -0.485117,0.105073 -1.284319,0.116137 -1.897393,0.02624 -2.474306,-0.538641 -4.355757,-1.719631 -5.81908,-3.35367 -0.660123,-0.886928 -1.116316,-3.189239 -0.770384,-3.887805 0.116969,-0.236202 0.209575,-0.222634 0.938607,0.137425 l 0.808824,0.399497 z m -4.987892,-2.623402 0.988665,0.488301 0.988669,0.488299 z"
           id="path1311-0" />
        <path
           style="display:inline;fill:#483e37;stroke-width:0.27505341"
           d="m 29.463277,-39.734092 c -0.04348,0.134344 -0.08398,1.520618 -0.09014,3.080544 -0.0202,5.111038 -1.255111,8.160866 -3.412536,8.427882 l -0.835619,0.103415 0.989709,2.679918 c 3.235568,8.761216 0.960856,12.593235 -1.148146,20.8148116 -1.005263,3.91883801 -1.723635,5.7131254 -4.378562,10.9364046 -0.89634,1.7634545 -1.750796,3.5765527 -1.898663,4.0291748 -0.215645,0.660006 -0.411688,0.954688 -1.05948,0.97451 l 6.97501,3.423798 1.397754,-1.362615 C 26.874747,12.523533 29.955914,9.1456593 30.074796,8.7777182 30.088216,8.7359162 29.71431,8.5770779 29.243723,8.4246775 28.50242,8.1845595 28.408165,8.0470286 28.53827,7.3947194 c 0.106086,-0.53186 0.464934,-0.9373805 1.222492,-1.3813664 1.831958,-1.0737146 3.029599,-3.3899563 5.154587,-9.9690199 2.332321,-7.2204391 2.678107,-9.8146711 2.129862,-15.9721691 -0.56266,-6.319432 -3.470414,-14.644641 -6.562931,-18.790383 -0.517028,-0.693109 -0.97557,-1.150256 -1.018987,-1.015881 z"
           id="path1647-9" />
        <path
           style="display:inline;fill:#6c5353;stroke-width:0.27505341"
           d="m 29.568364,-39.728422 c -0.05719,-0.03475 -0.09487,-0.04011 -0.105724,-0.0065 -0.04348,0.134345 -0.08348,1.520332 -0.08965,3.080256 -0.0051,1.295679 -0.08953,2.456753 -0.24602,3.475746 10.500492,22.345451 -0.37293,33.37066891 -5.57844,47.397949 l 1.055661,0.517741 1.397728,-1.363467 c 0.872145,-0.850243 3.954184,-4.2285766 4.073062,-4.5965167 0.01342,-0.041802 -0.359869,-0.1994874 -0.830457,-0.3518882 -0.741302,-0.240119 -0.836862,-0.3770556 -0.706756,-1.0293635 0.106085,-0.5318604 0.466315,-0.9379169 1.223827,-1.3819268 1.831955,-1.0737096 3.027848,-3.390492 5.152836,-9.9695556 2.332322,-7.2204392 2.679789,-9.8144972 2.131544,-15.9719952 -0.56266,-6.319432 -3.470536,-14.644618 -6.563052,-18.790361 -0.387773,-0.519831 -0.743044,-0.905743 -0.914563,-1.010115 z"
           id="path1664-1" />
      </g>
      <g
         transform="translate(3.0991549e-7,-1.9798227e-6)"
         style="display:inline"
         id="orcHead-5-7">
        <path
           style="fill:#000000;stroke:#000000;stroke-width:1px;stroke-linecap:butt;stroke-linejoin:miter;stroke-opacity:1"
           d="m 44.065662,19.466768 -0.03645,-6.03939 14.241733,2.175821 -0.18942,5.252529 z"
           id="path297-1" />
        <path
           id="path985-9-6"
           d="m 56.895734,4.257236 8.703281,-6.725262 -2.17582,8.5054789 -2.967029,3.263731 -4.648343,1.0879101 z"
           style="display:inline;fill:#217821;stroke:#165016;stroke-width:1;stroke-linecap:round;stroke-linejoin:round;stroke-miterlimit:4;stroke-dasharray:none;stroke-opacity:1" />
        <path
           id="path987-2-5"
           d="m 47.796848,4.55394 -7.615371,-8.901084 -0.692307,7.912075 2.472524,2.8681259 4.450541,0.989009 z"
           style="display:inline;fill:#217821;stroke:#165016;stroke-width:1;stroke-linecap:round;stroke-linejoin:round;stroke-miterlimit:4;stroke-dasharray:none;stroke-opacity:1" />
        <path
           id="path979-6-5"
           d="m 44.029216,13.427378 1.555046,-9.616414 6.42856,-1.978017 6.527462,2.967029 -0.269335,10.803223 z"
           style="fill:#217821;stroke:#165016;stroke-width:1;stroke-linecap:round;stroke-linejoin:round;stroke-miterlimit:4;stroke-dasharray:none;stroke-opacity:1" />
        <path
           id="path1051-1-9"
           d="m 57.186571,20.936146 2.904959,-7.843682 c 0.426507,1.852277 0.977335,3.530511 -0.226383,7.665113 z"
           style="fill:#ffeeaa;stroke:#d4aa00;stroke-width:1px;stroke-linecap:butt;stroke-linejoin:round;stroke-opacity:1" />
        <path
           style="fill:#ffeeaa;stroke:#d4aa00;stroke-width:1px;stroke-linecap:butt;stroke-linejoin:round;stroke-opacity:1"
           d="m 44.951757,19.261467 -2.904959,-7.843682 c -0.426511,1.852275 -0.977339,3.530509 0.226383,7.665111 z"
           id="path1053-0-7" />
        <path
           id="path1055-6-7"
           d="m 51.464774,8.3550884 2.335979,3.9774746 -1.452094,2.462246 -2.714786,-0.126268 -1.010152,-2.272844 z"
           style="fill:#008000;stroke:#165016;stroke-width:1px;stroke-linecap:butt;stroke-linejoin:round;stroke-opacity:1" />
        <path
           id="path977-3-6"
           d="m 40.464382,18.143049 4.945046,9.098884 11.472508,0.791207 4.549442,-8.505479 z"
           style="fill:#217821;stroke:#165016;stroke-width:1;stroke-linecap:round;stroke-linejoin:round;stroke-miterlimit:4;stroke-dasharray:none;stroke-opacity:1" />
        <path
           id="path981-6-6"
           d="m 43.247407,4.9495432 7.51647,1.7802157 -1.978019,2.571424 -3.164829,-1.186811 z"
           style="display:inline;fill:#ff0000;stroke:#800000;stroke-width:1;stroke-linecap:round;stroke-linejoin:round;stroke-miterlimit:4;stroke-dasharray:none;stroke-opacity:1" />
        <path
           style="display:inline;fill:#ff0000;stroke:#800000;stroke-width:1;stroke-linecap:round;stroke-linejoin:round;stroke-miterlimit:4;stroke-dasharray:none;stroke-opacity:1"
           d="m 58.520141,5.5902439 -6.287661,1.489183 1.654648,2.151042 2.647437,-0.992789 z"
           id="path983-6-3" />
      </g>
    </g>
  </g>
  <g
     style="display:none"
     id="layer11">
    <g
       id="orc-icon">
      <path
         id="path985-3"
         d="m 66.23479,31.934191 26.196478,-20.24273 -6.549118,25.601102 -8.930622,9.823682 -13.9913,3.274559 z"
         style="display:inline;fill:#217821;stroke:#165016;stroke-width:3.00999999;stroke-linecap:round;stroke-linejoin:round;stroke-miterlimit:4;stroke-dasharray:none;stroke-opacity:1" />
      <path
         id="path987-6"
         d="M 38.84756,32.827257 15.925641,6.0354007 13.841829,29.850382 l 7.442184,8.632931 13.395925,2.976872 z"
         style="display:inline;fill:#217821;stroke:#165016;stroke-width:3.00999999;stroke-linecap:round;stroke-linejoin:round;stroke-miterlimit:4;stroke-dasharray:none;stroke-opacity:1" />
      <path
         id="path979-7"
         d="m 26.870936,63.15524 5.060682,-32.745606 19.349671,-5.953743 19.647363,8.930621 -1.19075,36.31785 z"
         style="display:inline;fill:#217821;stroke:#165016;stroke-width:3.00999999;stroke-linecap:round;stroke-linejoin:round;stroke-miterlimit:4;stroke-dasharray:none;stroke-opacity:1" />
      <path
         id="path1051-5"
         d="m 66.854037,67.133148 8.743794,-23.609124 c 1.283779,5.575263 2.941746,10.62667 -0.681402,23.071633 z"
         style="display:inline;fill:#ffeeaa;stroke:#d4aa00;stroke-width:3.00999999;stroke-linecap:butt;stroke-linejoin:round;stroke-miterlimit:4;stroke-dasharray:none;stroke-opacity:1" />
      <path
         style="display:inline;fill:#ffeeaa;stroke:#d4aa00;stroke-width:3.00999999;stroke-linecap:butt;stroke-linejoin:round;stroke-miterlimit:4;stroke-dasharray:none;stroke-opacity:1"
         d="M 30.027807,62.092438 21.284013,38.483313 c -1.283779,5.575263 -2.941746,10.626671 0.681402,23.071634 z"
         id="path1053-3" />
      <path
         id="path1055-5"
         d="m 49.63169,44.087237 7.031187,11.972018 -4.370737,7.411251 -8.171378,-0.380064 -3.040515,-6.841153 z"
         style="display:inline;fill:#008000;stroke:#165016;stroke-width:3.00999999;stroke-linecap:butt;stroke-linejoin:round;stroke-miterlimit:4;stroke-dasharray:none;stroke-opacity:1" />
      <path
         id="path977-6"
         d="M 16.521013,58.726048 31.405378,86.113275 65.9371,88.494772 79.630715,62.893669 Z"
         style="display:inline;fill:#217821;stroke:#165016;stroke-width:3.00999999;stroke-linecap:round;stroke-linejoin:round;stroke-miterlimit:4;stroke-dasharray:none;stroke-opacity:1" />
      <path
         id="path981-29"
         d="m 25.15395,34.018004 22.624231,5.358369 -5.953747,7.739869 -9.52599,-3.572247 z"
         style="display:inline;fill:#ff0000;stroke:#800000;stroke-width:3.00999999;stroke-linecap:round;stroke-linejoin:round;stroke-miterlimit:4;stroke-dasharray:none;stroke-opacity:1" />
      <path
         style="display:inline;fill:#ff0000;stroke:#800000;stroke-width:3.00999999;stroke-linecap:round;stroke-linejoin:round;stroke-miterlimit:4;stroke-dasharray:none;stroke-opacity:1"
         d="m 71.124181,35.946484 -18.925572,4.482374 4.980415,6.474538 7.968664,-2.98825 z"
         id="path983-1" />
    </g>
  </g>
  <g
     style="display:none"
     id="layer5" />
  <g
     style="display:none"
     id="layer12">
    <g
       style="display:none"
       id="layer13">
      <g
         id="play-again">
        <circle
           r="21.86342"
           cy="77.494934"
           cx="49.671318"
           id="circle1020"
           style="opacity:1;vector-effect:none;fill:#aa8800;fill-opacity:1;stroke:#784421;stroke-width:2;stroke-linecap:round;stroke-linejoin:round;stroke-miterlimit:4;stroke-dasharray:none;stroke-dashoffset:0;stroke-opacity:1;paint-order:markers fill stroke" />
        <path
           style="fill:#ffff00;stroke:#ffff00;stroke-width:0.05899125"
           d="m 48.663493,90.061682 c -1.824387,-0.18439 -3.837744,-0.862499 -5.368205,-1.808043 -1.590278,-0.982495 -3.182727,-2.56721 -4.174258,-4.15399 -1.826257,-2.922622 -2.359451,-6.551731 -1.460532,-9.94087 0.559967,-2.111201 1.685838,-4.039809 3.301545,-5.655515 1.100534,-1.100534 2.124774,-1.829112 3.513069,-2.498982 3.433481,-1.656701 7.455612,-1.63588 10.94288,0.05665 2.759599,1.339353 4.890337,3.577401 6.119163,6.427331 0.431133,0.999899 0.797369,2.336162 0.897327,3.274015 0.08217,0.771001 0.01583,0.768017 0.772733,0.03474 0.373767,-0.362077 0.797044,-0.713512 0.957023,-0.794583 1.138316,-0.576825 2.486982,-0.101216 3.041075,1.072427 0.165441,0.350435 0.186199,0.452188 0.182936,0.89671 -0.0026,0.375198 -0.03792,0.590531 -0.139671,0.855376 -0.127748,0.332499 -0.306248,0.524843 -2.945239,3.17374 -3.268935,3.281204 -3.16045,3.197319 -4.135164,3.197319 -0.512773,0 -0.597842,-0.017 -0.974743,-0.19462 -0.385845,-0.181849 -0.593334,-0.375366 -3.162456,-2.949562 -3.099023,-3.10514 -3.058694,-3.054388 -3.108347,-3.912104 -0.04384,-0.757193 0.163882,-1.288842 0.699176,-1.78955 0.502507,-0.470034 1.172023,-0.674461 1.848399,-0.564374 0.58821,0.09572 0.832106,0.256437 1.739344,1.146062 l 0.847696,0.831243 -0.04,-0.383438 C 57.898327,75.241713 57.363614,73.860769 56.62533,72.786896 54.465093,69.644704 50.418633,68.421 46.845585,69.82936 c -1.757794,0.692858 -3.416678,2.227078 -4.295982,3.973143 -0.251707,0.499826 -0.567757,1.436949 -0.710674,2.107228 -0.150117,0.704041 -0.150117,2.363504 0,3.067544 0.142917,0.67028 0.458967,1.607405 0.710674,2.107233 0.919147,1.825177 2.651786,3.382546 4.502959,4.04745 0.879402,0.315859 1.438552,0.425227 2.607775,0.510051 0.681055,0.0494 0.841808,0.0814 1.16217,0.23132 1.72283,0.806207 1.716447,3.220035 -0.0107,4.028247 -0.333139,0.155893 -0.460144,0.181394 -0.985195,0.197841 -0.331515,0.01031 -0.854942,-0.0066 -1.163172,-0.03779 z"
           id="path1035" />
      </g>
      <g
         id="play-next">
        <circle
           style="opacity:1;vector-effect:none;fill:#aa8800;fill-opacity:1;stroke:#784421;stroke-width:2;stroke-linecap:round;stroke-linejoin:round;stroke-miterlimit:4;stroke-dasharray:none;stroke-dashoffset:0;stroke-opacity:1;paint-order:markers fill stroke"
           id="path1018"
           cx="72.212685"
           cy="28.257614"
           r="26.721958" />
        <path
           style="fill:#ffff00;stroke:#ffff00;stroke-width:5.10841465;stroke-linecap:round;stroke-linejoin:round;stroke-miterlimit:4;stroke-dasharray:none;stroke-opacity:1"
           d="M 67.222196,43.730342 62.11378,13.809628 86.561193,27.310438 Z"
           id="path1038" />
      </g>
      <g
         id="back-to-menu">
        <circle
           style="opacity:1;vector-effect:none;fill:#aa8800;fill-opacity:1;stroke:#784421;stroke-width:2;stroke-linecap:round;stroke-linejoin:round;stroke-miterlimit:4;stroke-dasharray:none;stroke-dashoffset:0;stroke-opacity:1;paint-order:markers fill stroke"
           id="circle1022"
           cx="17.5"
           cy="42.5"
           r="17.004883" />
        <path
           style="fill:#ffff00;stroke:#ffff00;stroke-width:4;stroke-linecap:round;stroke-linejoin:miter;stroke-miterlimit:4;stroke-dasharray:none;stroke-opacity:1"
           d="M 8.5862966,35.097699 25.506352,33.835008"
           id="path994" />
        <path
           style="fill:#ffff00;stroke:#ffff00;stroke-width:4;stroke-linecap:round;stroke-linejoin:miter;stroke-miterlimit:4;stroke-dasharray:none;stroke-opacity:1"
           d="m 8.8388348,41.916229 19.4454362,1.26269"
           id="path996" />
        <path
           style="fill:#ffff00;stroke:#ffff00;stroke-width:4;stroke-linecap:round;stroke-linejoin:miter;stroke-miterlimit:4;stroke-dasharray:none;stroke-opacity:1"
           d="M 9.5964496,48.734758 22.728433,52.270292"
           id="path998" />
      </g>
    </g>
  </g>
  <g
     style="display:none"
     id="layer3">
    <text
       id="text827"
       y="62.282455"
       x="13.185451"
       style="font-style:normal;font-weight:normal;font-size:40px;line-height:1.25;font-family:sans-serif;letter-spacing:0px;word-spacing:0px;fill:#000000;fill-opacity:1;stroke:none"
       xml:space="preserve"><tspan
         y="62.282455"
         x="13.185451"
         id="tspan825">999</tspan></text>
  </g>
</svg>
