<?xml version="1.0" encoding="UTF-8" standalone="no"?>
<!-- Created with Inkscape (http://www.inkscape.org/) -->

<svg
   xmlns:dc="http://purl.org/dc/elements/1.1/"
   xmlns:cc="http://creativecommons.org/ns#"
   xmlns:rdf="http://www.w3.org/1999/02/22-rdf-syntax-ns#"
   xmlns:svg="http://www.w3.org/2000/svg"
   xmlns="http://www.w3.org/2000/svg"
   xmlns:sodipodi="http://sodipodi.sourceforge.net/DTD/sodipodi-0.dtd"
   xmlns:inkscape="http://www.inkscape.org/namespaces/inkscape"
   width="100"
   height="100"
   viewBox="0 0 100 100"
   version="1.1"
   id="svg8"
   inkscape:version="0.92.3 (2405546, 2018-03-11)"
   sodipodi:docname="swordfight.svg">
  <defs
     id="defs2" />
  <sodipodi:namedview
     id="base"
     pagecolor="#ffffff"
     bordercolor="#666666"
     borderopacity="1.0"
     inkscape:pageopacity="0.0"
     inkscape:pageshadow="2"
     inkscape:zoom="1.979899"
     inkscape:cx="204.6217"
     inkscape:cy="101.94751"
     inkscape:document-units="px"
     inkscape:current-layer="svg8"
     showgrid="false"
     units="px"
     inkscape:window-width="1853"
     inkscape:window-height="1025"
     inkscape:window-x="67"
     inkscape:window-y="27"
     inkscape:window-maximized="1" />
  <metadata
     id="metadata5">
    <rdf:RDF>
      <cc:Work
         rdf:about="">
        <dc:format>image/svg+xml</dc:format>
        <dc:type
           rdf:resource="http://purl.org/dc/dcmitype/StillImage" />
        <dc:title></dc:title>
      </cc:Work>
    </rdf:RDF>
  </metadata>
  <g
     inkscape:label="Layer 1"
     inkscape:groupmode="layer"
     id="layer1"
     style="display:inline" />
  <rect
     style="opacity:1;vector-effect:none;fill:#ff0000;fill-opacity:1;stroke:none;stroke-width:1.00157475;stroke-linecap:round;stroke-linejoin:round;stroke-miterlimit:4;stroke-dasharray:none;stroke-dashoffset:0;stroke-opacity:1;paint-order:markers fill stroke"
     id="rect834"
     width="90"
     height="90"
     x="5"
     y="5"
     ry="8.3035746"
     rx="0" />
  <path
     style="fill:#800000;stroke-width:0.22923282"
     d="m 88.808425,13.040436 c -2.73733,5.966322 -6.20914,11.864347 -9.84281,16.721268 -2.53242,3.384944 -8.97434,10.159518 -28.37088,29.835937 l -14.4435,14.651916 1.05152,1.050414 1.05153,1.050414 -0.59578,0.396769 c -0.89299,0.594688 -3.4135,1.022384 -4.95981,0.841606 -0.79189,-0.0926 -2.01409,-0.491188 -2.90161,-0.946345 -0.87127,-0.446825 -1.72655,-0.727987 -1.98068,-0.651118 -0.67296,0.203543 -1.40731,1.031294 -1.36058,1.533631 0.0559,0.601001 -0.2188,0.830288 -1.12428,0.938323 l -0.76257,0.091 -0.13577,0.806404 c -0.1679,0.99726 -0.32062,1.153844 -1.36576,1.400302 -0.76968,0.181507 -0.84881,0.250534 -1.05938,0.924059 -0.21878,0.699756 -0.43824,0.912181 -2.13297,2.064646 -0.43388,0.295047 -0.61674,0.64012 -0.72974,1.377118 -0.30077,1.961566 -0.81085,3.022839 -1.90897,3.971801 -0.82939,0.716738 -1.19685,0.88426 -1.97624,0.900933 -0.52657,0.01129 -1.29937,-0.176183 -1.71734,-0.416548 -0.55216,-0.317553 -0.89806,-0.354424 -1.26511,-0.134897 -0.45372,0.271382 -0.58744,0.219967 -1.31297,-0.504794 -0.73121,-0.730444 -0.77297,-0.841735 -0.44042,-1.173932 0.29382,-0.293509 0.26377,-0.5845 -0.15008,-1.453317 -1.1448,-2.403357 0.40804,-4.627005 3.68678,-5.279452 1.63766,-0.325883 2.33473,-0.798062 2.84113,-1.924535 0.21974,-0.488801 0.4749,-0.695062 1.19803,-0.968412 0.89542,-0.33848 0.9253,-0.371305 1.17255,-1.288051 l 0.25371,-0.940721 0.95252,-0.259445 c 0.77973,-0.212384 0.96675,-0.345732 1.031,-0.735049 0.15297,-0.927055 0.3312,-1.153015 1.06623,-1.351784 1.51729,-0.410314 1.82912,-1.357328 0.9807,-2.978386 -0.34664,-0.662316 -0.75714,-1.59138 -0.91222,-2.064577 -0.55382,-1.689845 -0.0774,-5.42287 0.80442,-6.303794 0.29818,-0.297863 0.43224,-0.229146 1.35889,0.69651 l 1.02807,1.026982 17.25959,-17.022997 c 18.38439,-18.132389 23.95657,-23.424298 27.2277,-25.858182 2.98811,-2.223299 7.8968,-5.296454 11.44355,-7.16439 3.1895,-1.679776 7.80801,-3.872336 8.21454,-3.899707 0.12596,-0.00799 -0.40189,1.359705 -1.17299,3.04041 z m -6.84733,4.663546 c -0.37921,0.378578 -3.20733,3.057612 -6.28471,5.953426 -6.45005,6.069473 -26.852,25.647186 -38.09156,36.552642 l -7.69219,7.463542 1.25665,1.255317 1.25666,1.255316 3.75125,-3.948006 c 2.0632,-2.171403 7.62051,-7.956358 12.34959,-12.855464 12.19074,-12.629045 22.41772,-23.317541 27.97562,-29.238112 2.63205,-2.803802 5.16961,-5.481478 5.63903,-5.95039 0.46941,-0.468922 0.7805,-0.925477 0.6913,-1.014582 -0.0892,-0.0891 -0.47244,0.147733 -0.85164,0.526311 z"
     id="path847"
     inkscape:connector-curvature="0" />
</svg>
